<?xml version="1.0" encoding="UTF-8"?>
<svg width="398px" height="229px" viewBox="0 0 398 229" version="1.1" xmlns="http://www.w3.org/2000/svg" xmlns:xlink="http://www.w3.org/1999/xlink">
    <!-- Generator: Sketch 42 (36781) - http://www.bohemiancoding.com/sketch -->
    <title>404</title>
    <desc>Created with Sketch.</desc>
    <defs></defs>
    <g id="Page-1" stroke="none" stroke-width="1" fill="none" fill-rule="evenodd">
        <g id="404">
            <path d="M45.5,67.6 C27.9,73.3 7.5,82.1 4.2,100.4 C2.1,112.3 9,124.7 19.4,130.8 C24.5,133.8 30.7,135.9 33.4,141.2 C37.5,149.4 30.1,158.7 22.3,163.5 C14.5,168.3 4.9,172 1.4,180.5 C-0.9,186.1 1.22124533e-14,192.5 2.3,198.1 C10.8,218.5 35.7,227.5 57.8,226.4 C79.9,225.3 100.9,216.7 122.5,212.3 C196.9,197.1 275,231.6 349.3,215.8 C360.9,213.3 372.5,209.5 381.4,201.7 C391.5,193 397.2,179.8 398,166.5 C398.8,153.8 394.3,139.5 383,133.8 C376.4,130.5 368.4,130.6 361.2,132.4 C356.6,133.6 352.1,135.4 347.3,135.4 C342.6,135.4 337.3,133.1 336,128.5 C334.6,123.7 337.8,118.8 341.6,115.5 C349.3,108.9 359.6,105.6 366.5,98.2 C373.2,91.1 376,80.5 373.8,71.1 C371.5,61.6 364.2,53.5 355,50.2 C331.5,41.9 306,64.6 282,57.9 C280.2,57.4 278.3,56.6 277.4,55.1 C276.5,53.5 276.7,51.6 277.2,49.8 C280.1,40.1 291.5,34 292,23.9 C292.3,18.4 289,13.3 284.9,9.6 C256.8,-15.6 216.2,14.4 187.6,23.8 C140.7,39.4 92.7,52.3 45.5,67.6 Z" id="Shape" fill="#494089" fill-rule="nonzero"></path>
            <g id="Group" transform="translate(109.000000, 97.000000)" fill-rule="nonzero" fill="#FFFFFF">
                <path d="M39.8,44.6 L39.8,44.6 L48.3,39.5 L48.3,39.5 L44.5,33 L44.5,33 L36,38 L36,38 L13.6,0 L13.6,0 L4.7,5.3 L4.7,5.3 L0.5,60.4 L0.5,60.4 L3.7,65.8 L3.7,65.8 L32.1,49 L32.1,49 L41.9,65.6 L41.9,65.6 L49.7,61 L49.7,61 L39.8,44.6 Z M8.1,54.5 L8.1,54.5 L8,54.3 L8,54.3 L10.7,24.7 L10.7,24.7 L10.4,12.7 L10.4,12.7 L10.7,12.5 L10.7,12.5 L16.1,22.2 L16.1,22.2 L28.2,42.6 L28.2,42.6 L8.1,54.5 Z" id="Shape"></path>
                <path d="M193.4,17.1 L193.4,17.1 L184.6,11.7 L184.6,11.7 L133.9,33.7 L133.9,33.7 L130.6,39.1 L130.6,39.1 L158.7,56.4 L158.7,56.4 L148.6,72.9 L148.6,72.9 L156.3,77.6 L156.3,77.6 L166.4,61.1 L166.4,61.1 L174.9,66.3 L174.9,66.3 L178.8,59.9 L178.8,59.9 L170.3,54.7 L170.3,54.7 L193.4,17.1 Z M162.6,50 C162.5,50 162.5,50 162.6,50 L142.8,37.8 L142.8,37.8 L142.9,37.6 L142.9,37.6 L170.3,26.1 L170.3,26.1 L180.8,20.3 L180.8,20.3 L181.1,20.5 L181.1,20.5 L175,29.8 L175,29.8 L162.6,50 Z" id="Shape"></path>
            </g>
            <g id="Group" transform="translate(164.000000, 91.000000)">
                <circle id="Oval" fill="#A37DFF" cx="35" cy="35.3" r="34.5"></circle>
                <path d="M0.8,31 C11,32.5 28.2,25.2 33.7,24.1 C44.9,21.9 56.4,24.5 67.8,24.9 C67,22.4 65.9,20 64.6,17.8 C60.4,18 56,17.2 51.7,17.1 C43.7,16.9 35.7,19 27.6,18.5 C23.9,18.3 15.5,15 7.9,13.7 C4.2,18.6 1.6,24.6 0.8,31 Z" id="Shape" fill="#CCBBFF"></path>
                <path d="M35,0.9 C31.5,0.9 28.1,1.4 24.9,2.4 C29.2,4.9 37.9,5.8 39.9,6 C43.5,6.5 47.4,6.7 50.5,4.7 L50.6,4.6 C46,2.2 40.6,0.9 35,0.9 Z" id="Shape" fill="#CCBBFF"></path>
                <path d="M69.5,35.8 C59.6,33.3 49.1,33.1 39,35.3 C33.6,36.5 28.3,38.4 22.9,39.7 C16.1,41.4 9.1,42.2 2.1,42.1 L1.2,42.1 C2.6,49 6,55.1 10.8,59.9 C19.1,57 27,53.1 34.4,48.5 C40.9,44.4 47.4,39.6 55,38.9 C59.7,38.5 64.4,39.7 69.1,40.7 C69.3,39 69.4,37.4 69.5,35.8 Z" id="Shape" fill="#CCBBFF"></path>
                <path d="M67.6,46.4 C62.9,45.7 54.6,49.8 52.5,51.6 C50.7,53.1 49.1,55 47.2,56.4 C44.7,58.1 41.7,58.9 38.7,59.6 C32.8,61.1 26.9,62.8 21,64.7 C20.3,64.9 19.5,65.3 19.1,65.9 C23.8,68.4 29.2,69.8 34.9,69.8 C38.9,69.8 42.7,69.1 46.3,67.9 C49.9,62.8 52,56.2 57.7,53.8 C58.7,53.4 62,52.9 65.1,52.1 C66.1,50.3 67,48.4 67.6,46.4 Z" id="Shape" fill="#CCBBFF"></path>
            </g>
            <path d="M301.9,228.8 C293.3,183 253.1,148.3 204.8,148.3 C156.5,148.3 116.3,183 107.7,228.8 L301.9,228.8 Z" id="Shape" fill="#FFFFFF"></path>
            <ellipse id="Oval" fill="#90C9EA" transform="translate(211.779220, 203.433860) rotate(-82.489791) translate(-211.779220, -203.433860) " cx="211.77922" cy="203.43386" rx="6.29986282" ry="11.1997561"></ellipse>
            <g id="Group" transform="translate(111.000000, 54.000000)">
                <circle id="Oval" fill="#ABC3FF" cx="21.8" cy="13.6" r="12.8"></circle>
                <path d="M21.8,0.8 C19.5,0.8 17.4,1.4 15.6,2.4 C15.7,2.6 15.8,2.7 15.9,2.8 C17.2,4.1 20.3,4.2 22,4.2 C24.5,4.3 27,4 29.4,3.2 C27.3,1.8 24.7,0.8 21.8,0.8 Z" id="Shape" fill="#79A1F2"></path>
                <path d="M31.6,7.7 C32,7.6 32.4,7.4 32.8,7.2 C32.5,6.6 32.1,6.1 31.7,5.6 C30.4,6.2 29.2,6.7 27.9,7.3 C26.9,7.7 25.9,8.2 24.9,8.5 C23.4,8.9 21.7,8.9 20.2,8.9 C16.9,8.9 13.7,8.6 10.4,8.2 C9.6,9.9 9.2,11.7 9.2,13.7 C9.2,14.6 9.3,15.5 9.5,16.4 C10.2,16.1 10.8,15.7 11.4,15.3 C13,14.3 14.9,13.6 16.7,13 C21.6,11.1 26.6,9.4 31.6,7.7 Z" id="Shape" fill="#79A1F2"></path>
                <path d="M33.6,8.6 C32.6,9.5 31.9,10.7 30.8,11.5 C29.7,12.4 28.4,13.1 27.1,13.6 C26.2,14 25.2,14.2 24.3,14.7 C24,14.9 23.6,15.1 23.5,15.5 C23.4,16.2 24.1,16.6 24.8,16.8 C26.1,17.1 27.4,17 28.8,17 C30.4,16.9 31.9,16.9 33.5,16.8 C33.8,16.8 34.1,16.8 34.3,16.7 C34.5,15.7 34.7,14.7 34.7,13.6 C34.6,11.8 34.2,10.1 33.6,8.6 Z" id="Shape" fill="#79A1F2"></path>
                <path d="M22.2,13.2 C19.9,13.7 17.7,14.4 15.6,15.3 C14.2,15.9 12.8,16.7 11.4,17.2 C11,17.3 10.4,17.4 9.7,17.4 C10.5,19.8 11.9,21.8 13.7,23.4 C13.8,23.2 14,23.1 14.1,22.9 C16,20.4 17.3,17.2 20.1,15.6 C20.6,15.3 21.1,15.1 21.6,14.7 C22.1,14.3 22.3,13.8 22.2,13.2 Z" id="Shape" fill="#79A1F2"></path>
                <path d="M33.4,19 L33,19 C30.3,19.2 27.6,19.3 24.8,19.5 C23.1,19.6 21.3,19.7 19.9,20.7 C18.8,21.4 18.1,22.6 17.4,23.7 C17.2,24.1 16.7,24.6 16.4,25.2 C18,26 19.7,26.4 21.6,26.4 C21.9,26 22.2,25.5 22.6,25.1 C24.4,22.7 27.3,21.1 30.3,20.8 C31.1,20.7 31.9,20.7 32.7,20.6 C32.8,20 33.1,19.5 33.4,19 Z" id="Shape" fill="#79A1F2"></path>
                <path d="M33.5,18.6 C33.8,17.8 34.1,17 34.3,16.2 C31,17.4 27.1,18.4 23,19.2 C18.8,20 14.8,20.5 11.3,20.6 C11.8,21.3 12.3,21.9 12.9,22.5 C16.1,22.3 19.7,21.8 23.4,21.1 C27,20.5 30.5,19.7 33.5,18.6 Z" id="Shape" fill="#618DE5"></path>
                <path d="M9.3,21.7 C4.7,21.7 1,21 0.6,18.8 C0.2,16.7 2.9,14.6 8.6,12.4 C9.1,12.2 9.7,12.5 9.9,13 C10.1,13.5 9.8,14.1 9.3,14.3 C3.5,16.5 2.5,18.1 2.5,18.4 C2.7,19.5 9.9,20.8 22.9,18.2 C28.4,17.1 33.4,15.7 37.1,14.1 C41.3,12.3 42,11 41.9,10.8 C41.8,10.5 40.2,9.3 33.7,9.5 C33.2,9.5 32.7,9.1 32.7,8.5 C32.7,7.9 33.1,7.5 33.7,7.5 C40.1,7.3 43.6,8.3 44,10.4 C44.4,12.2 42.4,14 38,16 C34.2,17.7 29,19.2 23.4,20.3 C19.6,21 14,21.7 9.3,21.7 Z" id="Shape" fill="#FFFFFF" fill-rule="nonzero"></path>
            </g>
            <g id="Group" transform="translate(316.000000, 77.000000)">
                <circle id="Oval" fill="#7B91FF" transform="translate(14.076320, 14.369760) rotate(-61.574285) translate(-14.076320, -14.369760) " cx="14.07632" cy="14.36976" r="10.2995898"></circle>
                <path d="M19,5.3 C17.4,4.4 15.7,4 14,4.1 C14,4.2 14,4.4 14.1,4.5 C14.5,5.9 16.7,7.1 17.8,7.8 C19.5,8.8 21.4,9.6 23.4,9.9 C22.5,8.1 21,6.4 19,5.3 Z" id="Shape" fill="#80C3FF"></path>
                <path d="M23.3,13.9 C23.7,14 24,14 24.4,14 C24.4,13.5 24.3,13 24.2,12.4 C23.1,12.3 22,12.2 20.8,12.1 C19.9,12 19.1,12 18.2,11.8 C17,11.5 15.8,10.9 14.7,10.3 C12.4,9 10.2,7.6 8,6 C6.8,6.9 5.8,8 5,9.4 C4.6,10.1 4.4,10.7 4.2,11.4 C4.8,11.5 5.4,11.4 5.9,11.3 C7.4,11.2 9,11.4 10.5,11.7 C14.9,12.5 19.1,13.2 23.3,13.9 Z" id="Shape" fill="#80C3FF"></path>
                <path d="M24.4,15.3 C23.4,15.5 22.4,16.1 21.3,16.3 C20.2,16.5 19,16.5 17.8,16.4 C17,16.3 16.2,16.1 15.4,16.1 C15.1,16.1 14.8,16.1 14.6,16.4 C14.2,16.8 14.6,17.4 15,17.8 C15.8,18.5 16.8,19 17.7,19.5 C18.8,20.1 20,20.6 21.1,21.2 L21.7,21.5 C22.3,20.9 22.7,20.2 23.2,19.5 C23.9,18 24.3,16.6 24.4,15.3 Z" id="Shape" fill="#80C3FF"></path>
                <path d="M14.5,14.2 C12.7,13.7 10.9,13.3 9,13.2 C7.8,13.1 6.5,13.1 5.3,12.9 C5,12.8 4.5,12.6 4,12.4 C3.6,14.4 3.8,16.4 4.6,18.2 C4.8,18.1 4.9,18.1 5.1,18 C7.4,16.9 9.6,15.2 12.1,15.1 C12.6,15.1 13,15.1 13.5,15 C13.9,15 14.4,14.7 14.5,14.2 Z" id="Shape" fill="#80C3FF"></path>
                <path d="M20.2,22.6 C20.1,22.5 20,22.5 19.9,22.4 C17.9,21.5 15.9,20.5 13.9,19.6 C12.7,19 11.4,18.4 10,18.6 C9,18.7 8,19.2 7.1,19.8 C6.8,20 6.3,20.2 5.8,20.4 C6.6,21.5 7.7,22.5 9,23.3 L10.2,22.7 C12.4,21.7 15,21.6 17.3,22.6 C17.9,22.8 18.5,23.2 19.1,23.4 C19.5,23.1 19.8,22.9 20.2,22.6 Z" id="Shape" fill="#80C3FF"></path>
            </g>
            <path d="M129.2,187.3 L116.1,212.1 L112.5,210.2 C110.6,209.2 109.8,206.8 110.9,204.9 L120.3,187.1 C121.3,185.2 123.7,184.4 125.6,185.5 L129.2,187.3 Z" id="Shape" fill="#FFFFFF"></path>
            <path d="M292.8,211.6 L285,192.1 L288.8,190.6 C290.8,189.8 293.1,190.8 293.9,192.8 L298.8,205 C299.6,207 298.6,209.3 296.6,210.1 L292.8,211.6 Z" id="Shape" fill="#FFFFFF"></path>
            <path d="M171.8,156.9 L149.1,173.2 L146.7,169.9 C145.4,168.1 145.8,165.7 147.6,164.4 L163.9,152.7 C165.7,151.4 168.1,151.8 169.4,153.6 L171.8,156.9 Z" id="Shape" fill="#FFFFFF"></path>
            <path d="M274.9,184 L252.6,167.1 L255.1,163.9 C256.4,162.2 258.9,161.8 260.6,163.1 L276.7,175.2 C278.4,176.5 278.8,179 277.5,180.7 L274.9,184 Z" id="Shape" fill="#FFFFFF"></path>
            <g id="Group" transform="translate(141.000000, 167.000000)">
                <ellipse id="Oval" fill="#90C9EA" transform="translate(17.890090, 13.792530) rotate(-26.916083) translate(-17.890090, -13.792530) " cx="17.89009" cy="13.79253" rx="15.7005195" ry="7.00023163"></ellipse>
                <path d="M15.7,10.6 C22.7,7 29.7,6.4 32.2,8.8 C32.3,8 32.2,7.3 31.9,6.7 C30.1,3.3 22.4,3.7 14.7,7.6 C6.9,11.5 2.1,17.5 3.8,21 C4,21.3 4.2,21.6 4.5,21.9 C5,18.4 9.4,13.8 15.7,10.6 Z" id="Shape" fill="#494089"></path>
            </g>
            <g id="Group" transform="translate(247.000000, 170.000000)">
                <ellipse id="Oval" fill="#90C9EA" transform="translate(11.813480, 9.980580) rotate(-57.986721) translate(-11.813480, -9.980580) " cx="11.81348" cy="9.98058" rx="4.69985998" ry="10.5996842"></ellipse>
                <path d="M12.9,7.6 C17.4,10.4 20.2,14.2 19.6,16.5 C20.1,16.3 20.5,16 20.7,15.6 C22.1,13.4 19.2,9.1 14.2,6 C9.2,2.9 4.1,2.2 2.7,4.4 C2.6,4.6 2.5,4.9 2.4,5.1 C4.7,4.1 8.9,5.1 12.9,7.6 Z" id="Shape" fill="#494089"></path>
            </g>
            <path d="M212.6,197.2 C206.4,196.4 201.1,198.5 200.6,202 L200.6,202.8 C201.9,200 206.8,198.4 212.2,199.1 C217.9,199.9 222.3,202.9 222.5,206.1 C222.7,205.7 222.8,205.4 222.8,205 C223.4,201.4 218.8,198 212.6,197.2 Z" id="Shape" fill="#494089"></path>
            <circle id="Oval" fill="#90C9EA" cx="59.6" cy="111.8" r="3.2"></circle>
            <circle id="Oval" fill="#90C9EA" cx="248.5" cy="21.3" r="1.5"></circle>
            <circle id="Oval" fill="#90C9EA" cx="269.2" cy="48.3" r="1.5"></circle>
            <circle id="Oval" fill="#90C9EA" cx="25.6" cy="95.8" r="1.5"></circle>
            <circle id="Oval" fill="#FFFFFF" cx="232.2" cy="74" r="1.9"></circle>
            <circle id="Oval" fill="#FFFFFF" cx="311.1" cy="160.2" r="1.9"></circle>
            <circle id="Oval" fill="#FFFFFF" cx="366.5" cy="163.3" r="1.9"></circle>
            <circle id="Oval" fill="#FFFFFF" cx="71.1" cy="190.7" r="1.9"></circle>
            <circle id="Oval" fill="#FFFFFF" cx="179.5" cy="54.8" r="1.9"></circle>
            <polygon id="Shape" fill="#FFFFFF" points="158.6 100.5 161.1 101.9 158.6 103.2 157.1 105.7 155.8 103.2 153.3 101.7 155.8 100.4 157.3 97.9"></polygon>
            <polygon id="Shape" fill="#FFFFFF" points="276.5 74.1 278.1 75.1 276.5 75.9 275.5 77.6 274.6 75.9 273 75 274.7 74.1 275.6 72.4"></polygon>
            <polygon id="Shape" fill="#FFFFFF" points="83.6 152.5 85.3 153.5 83.6 154.3 82.7 156 81.8 154.3 80.2 153.4 81.8 152.5 82.8 150.9"></polygon>
            <polygon id="Shape" fill="#FFFFFF" points="84.6 85.9 86.2 86.8 84.5 87.7 83.6 89.3 82.7 87.7 81.1 86.7 82.8 85.9 83.7 84.2"></polygon>
            <polygon id="Shape" fill="#FFFFFF" points="34.6 185.3 36.2 186.3 34.6 187.1 33.6 188.8 32.8 187.1 31.1 186.2 32.8 185.3 33.7 183.7"></polygon>
            <polygon id="Shape" fill="#FFFFFF" points="331.5 139.2 333.1 140.2 331.4 141 330.5 142.7 329.6 141 328 140.1 329.6 139.2 330.6 137.6"></polygon>
            <polygon id="Shape" fill="#FFFFFF" points="351.6 205 353.2 205.9 351.6 206.8 350.6 208.4 349.8 206.8 348.1 205.8 349.8 205 350.7 203.3"></polygon>
        </g>
    </g>
</svg>