<?xml version="1.0" encoding="UTF-8"?>
<svg width="389px" height="301px" viewBox="0 0 389 301" version="1.1" xmlns="http://www.w3.org/2000/svg" xmlns:xlink="http://www.w3.org/1999/xlink">
    <!-- Generator: Sketch 42 (36781) - http://www.bohemiancoding.com/sketch -->
    <title>illustration</title>
    <desc>Created with Sketch.</desc>
    <defs></defs>
    <g id="Page-1" stroke="none" stroke-width="1" fill="none" fill-rule="evenodd">
        <g id="Desktop-HD" transform="translate(-815.000000, -191.000000)" fill-rule="nonzero">
            <g id="illustration" transform="translate(815.000000, 191.495535)">
                <path d="M385.548248,179.583435 C378.864347,160.880814 368.21542,155.100004 358.246212,143.084986 C346.011275,128.349588 337.628077,117.694761 340.913384,98.8787906 C346.124561,68.0478028 348.39029,-8.9163174 266.710755,1.17176316 C237.482849,4.7989382 214.372412,27.2420837 197.492729,49.57188 C183.218636,68.6145489 157.389324,70.3147872 136.657902,74.7354068 C111.168449,80.1761693 85.2258504,88.4506624 61.6622673,100.46568 C13.1756636,125.289159 -1.32500293,161.107512 0.600866846,206.900597 C1.16729913,220.729202 3.20645536,242.492252 26.5434655,267.995827 C58.0371006,302.34064 103.804829,306.987958 158.975334,291.232417 C171.550131,287.605242 183.558495,281.937781 195.906719,277.63051 C208.821375,273.209891 222.189177,270.262811 235.783552,269.015969 C267.390474,265.955541 300.243546,271.509652 330.604317,261.988318 C346.690994,257.000952 361.418233,247.819665 372.973452,235.691299 C387.474118,220.502503 392.572009,199.306199 385.548248,179.583435 Z" id="Shape" fill="#EAE6FF"></path>
                <path d="M310.812162,228.376194 C323.014776,220.91945 326.976663,204.895383 319.369839,192.520361 C317.626609,189.823241 315.566427,187.443429 313.189295,185.539579 C316.358805,181.097263 319.845266,176.813602 323.965629,172.847249 C325.867335,170.943399 327.769041,169.198204 329.670747,167.453008 C330.463124,168.087625 331.255501,168.722241 331.889403,169.515512 L338.228423,165.549159 C341.556409,163.486655 345.835247,164.597234 347.736953,167.928971 L354.075973,178.241489 C356.136155,181.573226 355.026826,185.856887 351.698841,187.760737 L345.359821,191.72709 C346.7861,196.645368 347.420002,201.563646 347.420002,206.481924 L354.709875,208.544428 C358.354812,209.655007 360.573469,213.462706 359.46414,217.111751 L356.136155,228.852157 C355.026826,232.501202 351.223414,234.722359 347.578478,233.61178 L340.288605,231.549277 C338.386899,234.881014 336.009766,237.895442 333.474158,240.592562 L337.436046,246.938727 C339.496227,250.270464 338.386899,254.554126 335.058913,256.457975 L324.758006,262.80414 C321.430021,264.866644 317.151182,263.756065 315.249476,260.424328 L311.287589,254.078163 C307.484177,255.188742 303.680765,255.823359 299.877353,255.982013 C297.658696,248.20796 296.707843,239.957946 297.024794,231.707931 C301.937534,232.183893 306.691799,231.073314 310.812162,228.376194 Z" id="Shape" fill="#D5D2FF"></path>
                <g id="Group" transform="translate(51.176471, 83.948051)">
                    <g id="Shape">
                        <path d="M241.569485,174.731082 L18.119032,174.731082 C12.096963,174.731082 7.1842226,169.812804 7.1842226,163.783947 L7.1842226,11.1586738 C7.1842226,5.12981688 12.096963,0.21153884 18.119032,0.21153884 L241.569485,0.21153884 C247.591554,0.21153884 252.504294,5.12981688 252.504294,11.1586738 L252.504294,163.783947 C252.504294,169.812804 247.591554,174.731082 241.569485,174.731082 Z" fill="#E3EAFF"></path>
                        <path d="M240.618632,172.35127 L19.069885,172.35127 C14.31562,172.35127 10.3537326,168.384917 10.3537326,163.625293 L10.3537326,11.0000197 C10.3537326,6.24039579 14.31562,2.27404253 19.069885,2.27404253 L240.618632,2.27404253 C245.372897,2.27404253 249.334784,6.24039579 249.334784,11.0000197 L249.334784,163.625293 C249.334784,168.543571 245.372897,172.35127 240.618632,172.35127 Z" fill="#5851BC"></path>
                        <path d="M233.64571,157.437782 L26.0428069,157.437782 C23.0317724,157.437782 20.65464,155.05797 20.65464,152.043541 L20.65464,15.7596436 C20.65464,12.7452151 23.0317724,10.3654032 26.0428069,10.3654032 L233.64571,10.3654032 C236.656744,10.3654032 239.033877,12.7452151 239.033877,15.7596436 L239.033877,152.043541 C239.033877,155.05797 236.656744,157.437782 233.64571,157.437782 Z" fill="#C4C3FC"></path>
                        <path d="M1.16215366,165.687797 C0.528251661,166.95703 0.0528251661,168.384917 0.0528251661,170.130112 C0.0528251661,175.207045 4.17318813,179.332052 9.24440408,179.332052 L250.444113,179.332052 C255.515329,179.332052 259.635692,175.207045 259.635692,170.130112 C259.635692,168.543571 259.160265,167.115684 258.526363,165.687797 L1.16215366,165.687797 Z" fill="#E3EAFF"></path>
                    </g>
                    <path d="M1.16215366,174.413774 C2.74690864,177.269548 5.75794311,179.332052 9.24440408,179.332052 L250.444113,179.332052 C253.930574,179.332052 256.941608,177.428202 258.526363,174.413774 L1.16215366,174.413774 Z" id="Shape" fill="#C8D6F2"></path>
                </g>
                <path d="M292.745955,84.1595898 L129.040765,84.1595898 L129.040765,193.789594 C129.040765,196.169406 130.942471,198.231909 133.478079,198.231909 L303.680765,198.231909 L303.680765,95.2653789 C303.680765,89.0778678 298.768024,84.1595898 292.745955,84.1595898 Z" id="Shape" fill="#424261" opacity="0.2"></path>
                <path d="M322.380874,193.154977 L139.341673,193.154977 C136.96454,193.154977 134.904359,191.251128 134.904359,188.712662 L134.904359,75.7509209 C134.904359,73.3711089 136.806065,71.3086052 139.341673,71.3086052 L322.222398,71.3086052 C324.599531,71.3086052 326.659712,73.2124548 326.659712,75.7509209 L326.659712,188.712662 C326.818188,191.092474 324.758006,193.154977 322.380874,193.154977 Z" id="Shape" fill="#E3EAFF" opacity="0.21"></path>
                <path d="M329.987698,184.904962 L147.106972,184.904962 C144.72984,184.904962 142.669658,183.001113 142.669658,180.462647 L142.669658,67.5009061 C142.669658,65.1210941 144.571364,63.0585904 147.106972,63.0585904 L329.987698,63.0585904 C332.36483,63.0585904 334.425011,64.96244 334.425011,67.5009061 L334.425011,180.462647 C334.425011,182.842459 332.523305,184.904962 329.987698,184.904962 Z" id="Shape" fill="#F9FBFC"></path>
                <path d="M105.903343,184.111692 L86.4108564,184.111692 C84.8261014,184.111692 83.7167729,182.842459 83.7167729,181.414572 L83.7167729,160.789535 C83.7167729,159.202993 84.9845769,158.092414 86.4108564,158.092414 L105.903343,158.092414 C107.488098,158.092414 108.597426,159.361648 108.597426,160.789535 L108.597426,181.414572 C108.597426,182.842459 107.329622,184.111692 105.903343,184.111692 Z" id="Shape" fill="#A4A4F7"></path>
                <path d="M105.903343,221.078104 L86.4108564,221.078104 C84.8261014,221.078104 83.7167729,219.808871 83.7167729,218.380984 L83.7167729,197.755947 C83.7167729,196.169406 84.9845769,195.058827 86.4108564,195.058827 L105.903343,195.058827 C107.488098,195.058827 108.597426,196.32806 108.597426,197.755947 L108.597426,218.380984 C108.597426,219.808871 107.329622,221.078104 105.903343,221.078104 Z" id="Shape" fill="#A4A4F7"></path>
                <g id="Group" transform="translate(89.738842, 199.296107)">
                    <path d="M11.8856624,5.91658405 C11.8856624,2.58484731 9.19157891,0.0463812269 6.02206894,0.0463812269 C2.69408347,0.0463812269 0.158475498,2.74350144 0.158475498,5.91658405 C0.158475498,5.91658405 -0.633901994,12.2627493 6.02206894,17.1810273 C12.6780399,12.1040951 11.8856624,5.91658405 11.8856624,5.91658405 Z" id="Shape" fill="#9570EE"></path>
                    <path d="M6.33901994,10.2002456 C3.64493646,10.3588997 1.58475498,8.13774187 1.74323048,5.59927579 C1.90170598,3.53677209 3.64493646,1.79157666 5.70511794,1.63292253 C8.39920142,1.4742684 10.4593829,3.69542622 10.3009074,6.23389231 C9.9839564,8.296396 8.39920142,10.0415914 6.33901994,10.2002456 Z" id="Shape" fill="#F9FBFC"></path>
                </g>
                <g id="Group" transform="translate(87.305323, 162.217422)">
                    <g>
                        <g>
                            <ellipse id="Oval" fill="#9570EE" cx="8.29711233" cy="8.4086689" rx="8.24072592" ry="8.25001477"></ellipse>
                            <ellipse id="Oval" fill="#F9FBFC" cx="8.29711233" cy="8.4086689" rx="6.65597093" ry="6.66347347"></ellipse>
                            <path d="M8.29711233,1.90384956 C11.3081468,1.90384956 13.8437548,3.96635326 14.6361323,6.66347347 C14.6361323,6.8221276 14.7946078,6.8221276 14.9530833,6.8221276 L14.9530833,6.8221276 C15.1115588,6.8221276 15.2700343,6.66347347 15.2700343,6.50481934 C14.3191813,3.49039087 11.6250978,1.42788717 8.45558783,1.42788717 C5.28607786,1.42788717 2.43351889,3.649045 1.6411414,6.50481934 C1.6411414,6.66347347 1.6411414,6.8221276 1.95809239,6.8221276 L1.95809239,6.8221276 C2.11656789,6.8221276 2.11656789,6.8221276 2.27504339,6.66347347 C2.75046989,3.80769913 5.28607786,1.90384956 8.29711233,1.90384956 Z" id="Shape" fill="#BB87EE"></path>
                            <path d="M15.5869853,8.72597716 C15.2700343,8.72597716 14.7946078,9.04328542 14.7946078,9.36059368 C14.3191813,12.5336763 11.6250978,15.0721424 8.29711233,15.0721424 C4.96912686,15.0721424 2.11656789,12.5336763 1.7996169,9.36059368 C1.7996169,9.04328542 1.4826659,8.72597716 1.0072394,8.72597716 L1.0072394,8.72597716 C0.531812909,8.72597716 0.214861912,9.20193955 0.214861912,9.67790195 C0.690288407,13.6442552 4.17674937,16.8173378 8.29711233,16.8173378 C12.4174753,16.8173378 15.9039363,13.8029093 16.3793628,9.67790195 C16.3793628,9.04328542 16.0624118,8.72597716 15.5869853,8.72597716 L15.5869853,8.72597716 Z" id="Shape" fill="#7F57EE"></path>
                            <ellipse id="Oval" fill="#F9FBFC" cx="8.29711233" cy="8.4086689" rx="6.65597093" ry="6.66347347"></ellipse>
                            <path d="M14.6361323,10.6298267 C14.4776568,10.6298267 14.4776568,10.6298267 14.3191813,10.7884809 C13.3683283,13.3269469 10.9911958,15.0721424 8.13863683,15.0721424 C5.28607786,15.0721424 2.90894539,13.3269469 1.95809239,10.7884809 C1.95809239,10.6298267 1.7996169,10.6298267 1.6411414,10.6298267 L1.6411414,10.6298267 C1.4826659,10.6298267 1.3241904,10.7884809 1.3241904,10.947135 C2.27504339,13.6442552 4.96912686,15.5481048 7.98016134,15.5481048 C10.9911958,15.5481048 13.6852793,13.6442552 14.6361323,10.947135 C14.9530833,10.7884809 14.9530833,10.6298267 14.6361323,10.6298267 L14.6361323,10.6298267 Z" id="Shape" fill="#9570EE"></path>
                        </g>
                        <path d="M8.29711233,9.04328542 L8.29711233,9.04328542 C8.13863683,9.04328542 7.98016134,8.88463129 7.98016134,8.72597716 L7.98016134,4.12500739 C7.98016134,3.96635326 8.13863683,3.80769913 8.29711233,3.80769913 L8.29711233,3.80769913 C8.45558783,3.80769913 8.61406333,3.96635326 8.61406333,4.12500739 L8.61406333,8.72597716 C8.61406333,8.88463129 8.45558783,9.04328542 8.29711233,9.04328542 Z" id="Shape" fill="#9570EE"></path>
                        <path d="M7.98016134,8.56732303 L7.98016134,8.56732303 C8.13863683,8.4086689 8.29711233,8.4086689 8.45558783,8.56732303 L11.3081468,10.947135 C11.4666223,11.1057891 11.4666223,11.2644432 11.3081468,11.4230974 L11.3081468,11.4230974 C11.1496713,11.5817515 10.9911958,11.5817515 10.8327203,11.4230974 L7.98016134,9.04328542 C7.98016134,8.88463129 7.82168584,8.72597716 7.98016134,8.56732303 Z" id="Shape" fill="#9570EE"></path>
                    </g>
                    <g transform="translate(7.923775, 2.323362)" id="Rectangle-path" fill="#CED6FF">
                        <rect x="0.214861912" y="0.0564499714" width="0.316950997" height="0.634616521"></rect>
                        <rect x="0.214861912" y="11.6382015" width="0.316950997" height="0.634616521"></rect>
                    </g>
                    <g transform="translate(1.905267, 7.403859)" id="Rectangle-path" fill="#CED6FF">
                        <rect transform="translate(0.480344, 0.835940) rotate(-90.000000) translate(-0.480344, -0.835940) " x="0.186226096" y="0.518631974" width="0.316950997" height="0.634616521"></rect>
                        <rect transform="translate(12.059673, 0.846570) rotate(-90.000000) translate(-12.059673, -0.846570) " x="11.7655553" y="0.529261801" width="0.316950997" height="0.634616521"></rect>
                    </g>
                    <g transform="translate(3.490022, 3.381056)" id="Rectangle-path" fill="#CED6FF">
                        <rect transform="translate(0.727061, 0.754931) rotate(-44.975691) translate(-0.727061, -0.754931) " x="0.432527737" y="0.438439042" width="0.316947986" height="0.634610492"></rect>
                        <rect transform="translate(8.877552, 9.063478) rotate(-45.000000) translate(-8.877552, -9.063478) " x="8.58343421" y="8.74617297" width="0.316947957" height="0.634610435"></rect>
                    </g>
                    <g transform="translate(3.169510, 3.381056)" id="Rectangle-path" fill="#CED6FF">
                        <rect transform="translate(0.744860, 8.967223) rotate(-135.000000) translate(-0.744860, -8.967223) " x="0.450742062" y="8.64991751" width="0.316947957" height="0.634610435"></rect>
                        <rect transform="translate(9.027836, 0.882668) rotate(-135.024309) translate(-9.027836, -0.882668) " x="8.73370831" y="0.565383355" width="0.316947986" height="0.634610492"></rect>
                    </g>
                </g>
                <g id="Group" transform="translate(53.289477, 119.380807)">
                    <path d="M52.6138655,26.0192774 L33.1213792,26.0192774 C31.5366242,26.0192774 30.4272957,24.7500443 30.4272957,23.3221571 L30.4272957,2.69712021 C30.4272957,1.11057891 31.6950997,6.68746104e-14 33.1213792,6.68746104e-14 L52.6138655,6.68746104e-14 C54.1986205,6.68746104e-14 55.307949,1.26923304 55.307949,2.69712021 L55.307949,23.3221571 C55.307949,24.7500443 54.040145,26.0192774 52.6138655,26.0192774 Z" id="Shape" fill="#A4A4F7"></path>
                    <g transform="translate(0.000000, 13.429151)" id="Shape">
                        <polyline fill="#F7D3A9" points="29.1594917 9.89300605 31.2196732 8.46511887 32.1705262 5.13338214 31.2196732 4.81607388 30.5857712 6.08530692 31.2196732 0.215104102 30.1103447 0.532412362 29.1594917 6.08530692 27.8916877 8.78242714 29.0010162 9.57569779"></polyline>
                        <polygon fill="#F7D3A9" points="41.3621051 16.0805171 41.6790561 13.542051 44.6900906 10.5276226 45.3239926 11.4795473 44.2146641 12.7487804 49.919782 11.3208932 49.919782 12.5901263 44.6900906 14.65263 43.5807621 16.5564795"></polygon>
                        <g transform="translate(0.000000, 7.784121)">
                            <g>
                                <polygon fill="#544DB8" points="3.80341196 69.219582 15.0551724 124.113911 23.6128493 123.161986 17.7492558 121.099483 19.9679128 120.464866 16.9568783 69.219582"></polygon>
                                <path d="M21.7111433,68.2676572 C21.7111433,68.2676572 35.9739381,81.5946042 33.7552812,97.6186713 C31.3781487,110.311002 26.1484572,115.22928 26.1484572,115.22928 L24.5637023,114.911972 L26.9408347,121.099483 L20.1263883,113.801393 C20.1263883,113.801393 28.5255897,102.219641 23.2958983,90.1619272 C18.0662068,78.1042133 6.65597093,73.8205518 6.65597093,73.8205518 C6.65597093,73.8205518 16.4814518,64.9359205 17.1153538,65.2532288 C18.0662068,65.570537 21.7111433,68.2676572 21.7111433,68.2676572 Z" fill="#544DB8"></path>
                                <g>
                                    <path d="M27.7332122,0.0463812269 C27.7332122,0.0463812269 4.27883846,28.4454705 1.58475498,34.1570192 C1.58475498,34.1570192 0.475426495,36.2195229 0.475426495,42.0897257 C0.475426495,47.9599286 2.53560798,69.8541985 2.53560798,69.8541985 L26.3069327,71.2820857 C26.3069327,71.2820857 18.5416333,44.6281918 18.3831578,43.9935753 C18.2246823,43.3589588 14.2627949,39.2339514 10.6178584,38.2820266 L30.5857712,2.10888492 L27.7332122,0.0463812269 Z" fill="#FF8B40"></path>
                                    <g transform="translate(6.339020, 21.094496)" fill="#F7D3A9">
                                        <path d="M6.65597093,14.3317564 C6.65597093,14.3317564 7.60682393,17.3461849 8.24072592,19.0913803 C8.24072592,19.0913803 3.32798547,18.9327262 1.58475498,16.7115684 L3.32798547,12.4279069 L6.65597093,14.3317564 Z"></path>
                                        <path d="M10.3009074,5.12981688 C10.3009074,5.12981688 11.7271869,13.5384858 10.3009074,15.4423353 C8.87462791,17.3461849 3.96188746,14.1731023 1.90170598,11.0000197 C-0.158475498,7.98559122 -0.633901994,1.00480949 2.85255897,0.528847101 C6.49749544,0.0528847101 9.50852991,2.1153884 10.3009074,5.12981688 Z"></path>
                                    </g>
                                    <path d="M14.4212704,41.7724175 C14.4212704,41.7724175 33.1213792,30.0320118 34.7061342,27.4935458 C36.2908891,25.1137338 40.4112521,7.02716296 40.4112521,7.02716296 L44.0561886,7.97908774 C44.0561886,7.97908774 41.9960071,28.1281623 41.3621051,30.190666 C40.7282031,32.2531697 22.3450453,51.9262818 18.0662068,51.9262818 C13.7873684,52.084936 12.3610889,46.6906955 14.4212704,41.7724175 Z" fill="#FF8B40"></path>
                                </g>
                            </g>
                            <path d="M6.49749544,22.0993053 C6.49749544,22.0993053 9.03310341,18.6089145 13.3119419,19.5608392 C17.7492558,20.3541099 18.8585843,19.4021851 18.8585843,19.4021851 C18.8585843,19.4021851 17.9077313,24.161809 14.8966969,25.2723879 C11.8856624,26.3829668 11.0932849,26.0656586 11.0932849,26.0656586 C11.0932849,26.0656586 12.6780399,27.6521999 13.1534664,28.9214329 C13.6288929,30.190666 11.7271869,27.3348916 11.0932849,28.4454705 C10.4593829,29.3973953 11.0932849,31.459899 12.5195644,31.3012449 C13.9458439,31.1425908 12.9949909,32.2531697 12.5195644,33.3637486 C12.0441379,34.4743275 11.0932849,35.9022147 10.3009074,35.4262523 C9.50852991,34.9502899 6.65597093,33.3637486 5.54664245,29.8733577 C4.43731396,26.3829668 4.12036296,23.2098842 6.49749544,22.0993053 Z" fill="#544DB8"></path>
                        </g>
                    </g>
                </g>
                <path d="M209.86327,173.005903 L156.457027,173.005903 C155.347698,173.005903 154.396845,172.053978 154.396845,170.943399 L154.396845,77.9720787 C154.396845,76.8614998 155.347698,75.909575 156.457027,75.909575 L209.86327,75.909575 C210.972598,75.909575 211.923451,76.8614998 211.923451,77.9720787 L211.923451,170.943399 C211.923451,172.053978 211.131074,173.005903 209.86327,173.005903 Z" id="Shape" fill="#E3EAFF"></path>
                <path d="M199.879313,91.9336421 L165.965557,91.9336421 C165.014704,91.9336421 164.380802,91.1403715 164.380802,90.3471008 L164.380802,85.4288228 C164.380802,84.476898 165.173179,83.8422815 165.965557,83.8422815 L199.879313,83.8422815 C200.830166,83.8422815 201.464068,84.6355522 201.464068,85.4288228 L201.464068,90.3471008 C201.622544,91.1403715 200.830166,91.9336421 199.879313,91.9336421 Z" id="Shape" fill="#9570EE"></path>
                <path d="M176.741891,137.626032 L169.293542,137.626032 C167.550312,137.626032 166.124032,136.198144 166.124032,134.452949 L166.124032,134.452949 C166.124032,132.707754 167.550312,131.279866 169.293542,131.279866 L176.741891,131.279866 C178.485121,131.279866 179.9114,132.707754 179.9114,134.452949 L179.9114,134.452949 C179.9114,136.198144 178.485121,137.626032 176.741891,137.626032 Z" id="Shape" fill="#FCA70C"></path>
                <path d="M198.136083,137.626032 L190.687734,137.626032 C188.944504,137.626032 187.518224,136.198144 187.518224,134.452949 L187.518224,134.452949 C187.518224,132.707754 188.944504,131.279866 190.687734,131.279866 L198.136083,131.279866 C199.879313,131.279866 201.305593,132.707754 201.305593,134.452949 L201.305593,134.452949 C201.305593,136.198144 199.879313,137.626032 198.136083,137.626032 Z" id="Shape" fill="#9570EE"></path>
                <rect id="Rectangle-path" fill="#F9FBFC" x="163.588424" y="100.183657" width="39.9358256" height="6.34616521"></rect>
                <rect id="Rectangle-path" fill="#F9FBFC" x="163.588424" y="110.813484" width="39.9358256" height="6.34616521"></rect>
                <rect id="Rectangle-path" fill="#CDD4FF" x="172.146101" y="121.126002" width="22.9789473" height="1.42788717"></rect>
                <path d="M330.463124,154.919332 L258.515248,154.919332 C254.077934,154.919332 250.432997,151.270287 250.432997,146.827971 L250.432997,146.827971 C250.432997,142.385656 254.077934,138.736611 258.515248,138.736611 L330.463124,138.736611 C334.900438,138.736611 338.545374,142.385656 338.545374,146.827971 L338.545374,146.827971 C338.545374,151.428941 334.900438,154.919332 330.463124,154.919332 Z" id="Shape" fill="#9570EE"></path>
                <g id="Group" transform="translate(216.519241, 73.959344)">
                    <path d="M51.821488,13.0560199 L6.97292193,13.0560199 C3.32798547,13.0560199 0.475426495,10.0415914 0.475426495,6.55120057 L0.475426495,6.55120057 C0.475426495,2.90215557 3.48646097,0.0463812269 6.97292193,0.0463812269 L51.821488,0.0463812269 C55.4664245,0.0463812269 58.3189834,3.0608097 58.3189834,6.55120057 L58.3189834,6.55120057 C58.3189834,10.0415914 55.307949,13.0560199 51.821488,13.0560199 Z" id="Shape" fill="#E3EAFF"></path>
                    <ellipse id="Oval" fill="#FFC240" cx="15.5305988" cy="6.39254644" rx="2.06018148" ry="2.06250369"></ellipse>
                    <ellipse id="Oval" fill="#90C240" cx="29.6349182" cy="6.39254644" rx="2.06018148" ry="2.06250369"></ellipse>
                    <ellipse id="Oval" fill="#EB4F24" cx="42.7883846" cy="6.39254644" rx="2.06018148" ry="2.06250369"></ellipse>
                </g>
                <g id="Group" transform="translate(87.625835, 125.726972)">
                    <ellipse id="Oval" fill="#FFFFFF" cx="8.29355109" cy="8.25001477" rx="5.07121595" ry="5.07693217"></ellipse>
                    <g>
                        <path d="M13.364767,2.22115782 L12.413914,2.22115782 L11.1461101,0.475962391 C10.9876346,0.317308261 10.8291591,0.317308261 10.6706836,0.317308261 L5.59946761,0.317308261 C5.44099211,0.317308261 5.28251661,0.475962391 5.12404112,0.475962391 L3.85623713,2.22115782 L2.90538414,2.22115782 C1.47910465,2.22115782 0.369776163,3.33173674 0.369776163,4.75962391 L0.369776163,12.0577139 C0.369776163,13.4856011 1.47910465,14.59618 2.90538414,14.59618 L13.047816,14.59618 C14.4740955,14.59618 15.583424,13.4856011 15.583424,12.0577139 L15.583424,4.75962391 C15.900375,3.33173674 14.7910465,2.22115782 13.364767,2.22115782 Z M8.29355109,11.8990598 C6.23336961,11.8990598 4.64861462,10.3125185 4.64861462,8.25001477 C4.64861462,6.18751108 6.23336961,4.60096978 8.29355109,4.60096978 C10.3537326,4.60096978 11.9384875,6.18751108 11.9384875,8.25001477 C11.9384875,10.3125185 10.3537326,11.8990598 8.29355109,11.8990598 Z" id="Shape" fill="#9570EE"></path>
                        <ellipse id="Oval" fill="#6DB8FF" cx="8.29355109" cy="8.25001477" rx="2.37713248" ry="2.37981195"></ellipse>
                    </g>
                </g>
                <g id="Group" transform="translate(233.951545, 100.342311)">
                    <path d="M40.8866786,29.0337058 L3.16950997,29.0337058 C1.42627949,29.0337058 0,27.6058187 0,25.8606232 L0,3.33173674 C0,1.5865413 1.42627949,0.15865413 3.16950997,0.15865413 L40.7282031,0.15865413 C42.4714336,0.15865413 43.8977131,1.5865413 43.8977131,3.33173674 L43.8977131,25.8606232 C44.0561886,27.6058187 42.6299091,29.0337058 40.8866786,29.0337058 Z" id="Shape" fill="#E3EAFF"></path>
                    <path d="M22.0280943,14.4375259 L22.0280943,14.4375259 C21.7111433,14.4375259 21.5526678,14.4375259 21.3941923,14.2788717 L4.43731396,4.75962391 C3.80341196,4.44231565 3.64493646,3.80769913 3.96188746,3.17308261 C4.27883846,2.53846608 4.91274045,2.37981195 5.54664245,2.69712021 L22.0280943,11.8990598 L38.5095461,2.69712021 C39.1434481,2.37981195 39.7773501,2.53846608 40.0943011,3.17308261 C40.4112521,3.80769913 40.2527766,4.44231565 39.6188746,4.75962391 L22.6619963,14.2788717 C22.5035208,14.2788717 22.3450453,14.4375259 22.0280943,14.4375259 Z" id="Shape" fill="#FD4940"></path>
                </g>
                <path d="M339.813178,126.520243 L291.002725,126.520243 C289.41797,126.520243 288.150166,125.25101 288.150166,123.664468 L288.150166,58.6162748 C288.150166,57.0297335 289.41797,55.7605004 291.002725,55.7605004 L339.813178,55.7605004 C341.397933,55.7605004 342.665737,57.0297335 342.665737,58.6162748 L342.665737,123.664468 C342.665737,125.25101 341.397933,126.520243 339.813178,126.520243 Z" id="Shape" fill="#544DB8"></path>
                <g id="Group" transform="translate(295.756990, 63.851861)">
                    <path d="M4.43731396,1.42788717 L0.792377492,1.42788717 C0.633901994,1.42788717 0.475426495,1.11057891 0.475426495,0.793270651 L0.475426495,0.793270651 C0.475426495,0.475962391 0.633901994,0.15865413 0.792377492,0.15865413 L4.43731396,0.15865413 C4.59578945,0.15865413 4.75426495,0.475962391 4.75426495,0.793270651 L4.75426495,0.793270651 C4.75426495,1.11057891 4.59578945,1.42788717 4.43731396,1.42788717 Z" id="Shape" fill="#00CCFF"></path>
                    <path d="M26.9408347,1.42788717 L6.18054444,1.42788717 C6.02206894,1.42788717 5.86359344,1.11057891 5.86359344,0.793270651 L5.86359344,0.793270651 C5.86359344,0.475962391 6.02206894,0.15865413 6.18054444,0.15865413 L26.9408347,0.15865413 C27.0993102,0.15865413 27.2577857,0.475962391 27.2577857,0.793270651 L27.2577857,0.793270651 C27.2577857,1.11057891 27.0993102,1.42788717 26.9408347,1.42788717 Z" id="Shape" fill="#00CCFF"></path>
                    <path d="M12.8365154,4.28366152 L6.18054444,4.28366152 C6.02206894,4.28366152 5.86359344,3.96635326 5.86359344,3.649045 L5.86359344,3.649045 C5.86359344,3.33173674 6.02206894,3.01442847 6.18054444,3.01442847 L12.8365154,3.01442847 C12.9949909,3.01442847 13.1534664,3.33173674 13.1534664,3.649045 L13.1534664,3.649045 C13.1534664,3.96635326 12.9949909,4.28366152 12.8365154,4.28366152 Z" id="Shape" fill="#FF56A9"></path>
                    <path d="M23.7713248,4.28366152 L14.2627949,4.28366152 C14.1043194,4.28366152 13.9458439,3.96635326 13.9458439,3.649045 L13.9458439,3.649045 C13.9458439,3.33173674 14.1043194,3.01442847 14.2627949,3.01442847 L23.7713248,3.01442847 C23.9298003,3.01442847 24.0882758,3.33173674 24.0882758,3.649045 L24.0882758,3.649045 C24.0882758,3.96635326 23.9298003,4.28366152 23.7713248,4.28366152 Z" id="Shape" fill="#E3EAFF"></path>
                    <path d="M26.9408347,18.4038791 L6.18054444,18.4038791 C6.02206894,18.4038791 5.86359344,18.0865708 5.86359344,17.7692626 L5.86359344,17.7692626 C5.86359344,17.4519543 6.02206894,17.1346461 6.18054444,17.1346461 L26.9408347,17.1346461 C27.0993102,17.1346461 27.2577857,17.4519543 27.2577857,17.7692626 L27.2577857,17.7692626 C27.2577857,18.0865708 27.0993102,18.4038791 26.9408347,18.4038791 Z" id="Shape" fill="#E3EAFF"></path>
                    <path d="M4.43731396,21.4183076 L0.792377492,21.4183076 C0.633901994,21.4183076 0.475426495,21.1009993 0.475426495,20.7836911 L0.475426495,20.7836911 C0.475426495,20.4663828 0.633901994,20.1490745 0.792377492,20.1490745 L4.43731396,20.1490745 C4.59578945,20.1490745 4.75426495,20.4663828 4.75426495,20.7836911 L4.75426495,20.7836911 C4.75426495,21.1009993 4.59578945,21.4183076 4.43731396,21.4183076 Z" id="Shape" fill="#00CCFF"></path>
                    <path d="M12.8365154,21.4183076 L6.18054444,21.4183076 C6.02206894,21.4183076 5.86359344,21.1009993 5.86359344,20.7836911 L5.86359344,20.7836911 C5.86359344,20.4663828 6.02206894,20.1490745 6.18054444,20.1490745 L12.8365154,20.1490745 C12.9949909,20.1490745 13.1534664,20.4663828 13.1534664,20.7836911 L13.1534664,20.7836911 C13.1534664,21.1009993 12.9949909,21.4183076 12.8365154,21.4183076 Z" id="Shape" fill="#E3EAFF"></path>
                    <path d="M23.7713248,21.4183076 L14.2627949,21.4183076 C14.1043194,21.4183076 13.9458439,21.1009993 13.9458439,20.7836911 L13.9458439,20.7836911 C13.9458439,20.4663828 14.1043194,20.1490745 14.2627949,20.1490745 L23.7713248,20.1490745 C23.9298003,20.1490745 24.0882758,20.4663828 24.0882758,20.7836911 L24.0882758,20.7836911 C24.0882758,21.1009993 23.9298003,21.4183076 23.7713248,21.4183076 Z" id="Shape" fill="#FF56A9"></path>
                    <path d="M32.1705262,7.13943586 L6.18054444,7.13943586 C6.02206894,7.13943586 5.86359344,6.8221276 5.86359344,6.50481934 L5.86359344,6.50481934 C5.86359344,6.18751108 6.02206894,5.87020282 6.18054444,5.87020282 L32.1705262,5.87020282 C32.3290017,5.87020282 32.4874772,6.18751108 32.4874772,6.50481934 L32.4874772,6.50481934 C32.4874772,6.8221276 32.3290017,7.13943586 32.1705262,7.13943586 Z" id="Shape" fill="#FF56A9"></path>
                    <path d="M26.6238837,10.1538643 L20.6018148,10.1538643 C20.4433393,10.1538643 20.2848638,9.99521021 20.2848638,9.83655608 L20.2848638,9.20193955 C20.2848638,9.04328542 20.4433393,8.88463129 20.6018148,8.88463129 L26.6238837,8.88463129 C26.7823592,8.88463129 26.9408347,9.04328542 26.9408347,9.20193955 L26.9408347,9.83655608 C27.0993102,9.99521021 26.9408347,10.1538643 26.6238837,10.1538643 Z" id="Shape" fill="#00CCFF"></path>
                    <path d="M14.7382214,10.1538643 L6.18054444,10.1538643 C6.02206894,10.1538643 5.86359344,9.83655608 5.86359344,9.51924782 L5.86359344,9.51924782 C5.86359344,9.20193955 6.02206894,8.88463129 6.18054444,8.88463129 L14.7382214,8.88463129 C14.8966969,8.88463129 15.0551724,9.20193955 15.0551724,9.51924782 L15.0551724,9.51924782 C15.0551724,9.83655608 15.0551724,10.1538643 14.7382214,10.1538643 Z" id="Shape" fill="#E3EAFF"></path>
                    <path d="M19.3340108,10.1538643 L15.8475498,10.1538643 C15.6890743,10.1538643 15.5305988,9.83655608 15.5305988,9.51924782 L15.5305988,9.51924782 C15.5305988,9.20193955 15.6890743,8.88463129 15.8475498,8.88463129 L19.3340108,8.88463129 C19.4924863,8.88463129 19.6509618,9.20193955 19.6509618,9.51924782 L19.6509618,9.51924782 C19.6509618,9.83655608 19.4924863,10.1538643 19.3340108,10.1538643 Z" id="Shape" fill="#00CCFF"></path>
                    <path d="M4.43731396,12.8509846 L0.792377492,12.8509846 C0.633901994,12.8509846 0.475426495,12.5336763 0.475426495,12.216368 L0.475426495,12.216368 C0.475426495,11.8990598 0.633901994,11.5817515 0.792377492,11.5817515 L4.43731396,11.5817515 C4.59578945,11.5817515 4.75426495,11.8990598 4.75426495,12.216368 L4.75426495,12.216368 C4.75426495,12.5336763 4.59578945,12.8509846 4.43731396,12.8509846 Z" id="Shape" fill="#E3EAFF"></path>
                    <path d="M32.1705262,12.8509846 L6.18054444,12.8509846 C6.02206894,12.8509846 5.86359344,12.5336763 5.86359344,12.216368 L5.86359344,12.216368 C5.86359344,11.8990598 6.02206894,11.5817515 6.18054444,11.5817515 L32.1705262,11.5817515 C32.3290017,11.5817515 32.4874772,11.8990598 32.4874772,12.216368 L32.4874772,12.216368 C32.4874772,12.5336763 32.3290017,12.8509846 32.1705262,12.8509846 Z" id="Shape" fill="#E3EAFF"></path>
                    <path d="M4.43731396,24.1154278 L0.792377492,24.1154278 C0.633901994,24.1154278 0.475426495,23.7981195 0.475426495,23.4808113 L0.475426495,23.4808113 C0.475426495,23.163503 0.633901994,22.8461948 0.792377492,22.8461948 L4.43731396,22.8461948 C4.59578945,22.8461948 4.75426495,23.163503 4.75426495,23.4808113 L4.75426495,23.4808113 C4.75426495,23.7981195 4.59578945,24.1154278 4.43731396,24.1154278 Z" id="Shape" fill="#E3EAFF"></path>
                    <path d="M29.1594917,24.1154278 L20.6018148,24.1154278 C20.2848638,24.1154278 20.1263883,23.9567737 20.1263883,23.6394654 L20.1263883,23.163503 C20.1263883,22.8461948 20.2848638,22.6875406 20.6018148,22.6875406 L29.1594917,22.6875406 C29.4764427,22.6875406 29.6349182,22.8461948 29.6349182,23.163503 L29.6349182,23.6394654 C29.6349182,23.9567737 29.4764427,24.1154278 29.1594917,24.1154278 Z" id="Shape" fill="#E3EAFF"></path>
                    <path d="M14.7382214,24.1154278 L6.18054444,24.1154278 C6.02206894,24.1154278 5.86359344,23.7981195 5.86359344,23.4808113 L5.86359344,23.4808113 C5.86359344,23.163503 6.02206894,22.8461948 6.18054444,22.8461948 L14.7382214,22.8461948 C14.8966969,22.8461948 15.0551724,23.163503 15.0551724,23.4808113 L15.0551724,23.4808113 C15.0551724,23.7981195 15.0551724,24.1154278 14.7382214,24.1154278 Z" id="Shape" fill="#E3EAFF"></path>
                    <path d="M19.3340108,24.1154278 L15.8475498,24.1154278 C15.6890743,24.1154278 15.5305988,23.7981195 15.5305988,23.4808113 L15.5305988,23.4808113 C15.5305988,23.163503 15.6890743,22.8461948 15.8475498,22.8461948 L19.3340108,22.8461948 C19.4924863,22.8461948 19.6509618,23.163503 19.6509618,23.4808113 L19.6509618,23.4808113 C19.6509618,23.7981195 19.4924863,24.1154278 19.3340108,24.1154278 Z" id="Shape" fill="#E3EAFF"></path>
                    <path d="M4.43731396,26.812548 L0.792377492,26.812548 C0.633901994,26.812548 0.475426495,26.4952398 0.475426495,26.1779315 L0.475426495,26.1779315 C0.475426495,25.8606232 0.633901994,25.543315 0.792377492,25.543315 L4.43731396,25.543315 C4.59578945,25.543315 4.75426495,25.8606232 4.75426495,26.1779315 L4.75426495,26.1779315 C4.75426495,26.6538939 4.59578945,26.812548 4.43731396,26.812548 Z" id="Shape" fill="#FFC359"></path>
                    <path d="M10.6178584,26.812548 L6.18054444,26.812548 C6.02206894,26.812548 5.86359344,26.4952398 5.86359344,26.1779315 L5.86359344,26.1779315 C5.86359344,25.8606232 6.02206894,25.543315 6.18054444,25.543315 L10.6178584,25.543315 C10.7763339,25.543315 10.9348094,25.8606232 10.9348094,26.1779315 L10.9348094,26.1779315 C10.9348094,26.6538939 10.7763339,26.812548 10.6178584,26.812548 Z" id="Shape" fill="#00CCFF"></path>
                    <path d="M0.792377492,15.865413 C0.633901994,15.865413 0.475426495,15.5481048 0.475426495,15.2307965 L0.475426495,15.2307965 C0.475426495,14.9134882 0.633901994,14.59618 0.792377492,14.59618 L4.43731396,14.59618 C4.59578945,14.59618 4.75426495,14.9134882 4.75426495,15.2307965 L4.75426495,15.2307965 C4.75426495,15.5481048 4.59578945,15.865413 4.43731396,15.865413" id="Shape" fill="#00CCFF"></path>
                    <path d="M30.4272957,15.865413 L20.7602903,15.865413 C20.4433393,15.865413 20.2848638,15.7067589 20.2848638,15.3894506 L20.2848638,14.9134882 C20.2848638,14.59618 20.4433393,14.4375259 20.7602903,14.4375259 L30.4272957,14.4375259 C30.7442467,14.4375259 30.9027222,14.59618 30.9027222,14.9134882 L30.9027222,15.3894506 C30.9027222,15.7067589 30.7442467,15.865413 30.4272957,15.865413 Z" id="Shape" fill="#E3EAFF"></path>
                    <path d="M14.7382214,15.865413 L6.18054444,15.865413 C6.02206894,15.865413 5.86359344,15.5481048 5.86359344,15.2307965 L5.86359344,15.2307965 C5.86359344,14.9134882 6.02206894,14.59618 6.18054444,14.59618 L14.7382214,14.59618 C14.8966969,14.59618 15.0551724,14.9134882 15.0551724,15.2307965 L15.0551724,15.2307965 C15.0551724,15.5481048 15.0551724,15.865413 14.7382214,15.865413 Z" id="Shape" fill="#FFC359"></path>
                    <path d="M19.3340108,15.865413 L15.8475498,15.865413 C15.6890743,15.865413 15.5305988,15.5481048 15.5305988,15.2307965 L15.5305988,15.2307965 C15.5305988,14.9134882 15.6890743,14.59618 15.8475498,14.59618 L19.3340108,14.59618 C19.4924863,14.59618 19.6509618,14.9134882 19.6509618,15.2307965 L19.6509618,15.2307965 C19.6509618,15.5481048 19.4924863,15.865413 19.3340108,15.865413 Z" id="Shape" fill="#FFC359"></path>
                    <path d="M26.9408347,29.8269765 L6.18054444,29.8269765 C6.02206894,29.8269765 5.86359344,29.5096682 5.86359344,29.19236 L5.86359344,29.19236 C5.86359344,28.8750517 6.02206894,28.5577434 6.18054444,28.5577434 L26.9408347,28.5577434 C27.0993102,28.5577434 27.2577857,28.8750517 27.2577857,29.19236 L27.2577857,29.19236 C27.2577857,29.5096682 27.0993102,29.8269765 26.9408347,29.8269765 Z" id="Shape" fill="#E3EAFF"></path>
                    <path d="M12.8365154,32.841405 L6.18054444,32.841405 C6.02206894,32.841405 5.86359344,32.5240967 5.86359344,32.2067884 L5.86359344,32.2067884 C5.86359344,31.8894802 6.02206894,31.5721719 6.18054444,31.5721719 L12.8365154,31.5721719 C12.9949909,31.5721719 13.1534664,31.8894802 13.1534664,32.2067884 L13.1534664,32.2067884 C13.1534664,32.5240967 12.9949909,32.841405 12.8365154,32.841405 Z" id="Shape" fill="#E3EAFF"></path>
                    <path d="M23.7713248,32.841405 L14.2627949,32.841405 C14.1043194,32.841405 13.9458439,32.5240967 13.9458439,32.2067884 L13.9458439,32.2067884 C13.9458439,31.8894802 14.1043194,31.5721719 14.2627949,31.5721719 L23.7713248,31.5721719 C23.9298003,31.5721719 24.0882758,31.8894802 24.0882758,32.2067884 L24.0882758,32.2067884 C24.0882758,32.5240967 23.9298003,32.841405 23.7713248,32.841405 Z" id="Shape" fill="#E3EAFF"></path>
                    <path d="M26.9408347,46.9616226 L6.18054444,46.9616226 C6.02206894,46.9616226 5.86359344,46.6443143 5.86359344,46.327006 L5.86359344,46.327006 C5.86359344,46.0096978 6.02206894,45.6923895 6.18054444,45.6923895 L26.9408347,45.6923895 C27.0993102,45.6923895 27.2577857,46.0096978 27.2577857,46.327006 L27.2577857,46.327006 C27.2577857,46.6443143 27.0993102,46.9616226 26.9408347,46.9616226 Z" id="Shape" fill="#E3EAFF"></path>
                    <path d="M4.43731396,49.8173969 L0.792377492,49.8173969 C0.633901994,49.8173969 0.475426495,49.5000886 0.475426495,49.1827804 L0.475426495,49.1827804 C0.475426495,48.8654721 0.633901994,48.5481639 0.792377492,48.5481639 L4.43731396,48.5481639 C4.59578945,48.5481639 4.75426495,48.8654721 4.75426495,49.1827804 L4.75426495,49.1827804 C4.75426495,49.5000886 4.59578945,49.8173969 4.43731396,49.8173969 Z" id="Shape" fill="#FF56A9"></path>
                    <path d="M12.8365154,49.8173969 L6.18054444,49.8173969 C6.02206894,49.8173969 5.86359344,49.5000886 5.86359344,49.1827804 L5.86359344,49.1827804 C5.86359344,48.8654721 6.02206894,48.5481639 6.18054444,48.5481639 L12.8365154,48.5481639 C12.9949909,48.5481639 13.1534664,48.8654721 13.1534664,49.1827804 L13.1534664,49.1827804 C13.1534664,49.5000886 12.9949909,49.8173969 12.8365154,49.8173969 Z" id="Shape" fill="#00CCFF"></path>
                    <path d="M23.7713248,49.8173969 L14.2627949,49.8173969 C14.1043194,49.8173969 13.9458439,49.5000886 13.9458439,49.1827804 L13.9458439,49.1827804 C13.9458439,48.8654721 14.1043194,48.5481639 14.2627949,48.5481639 L23.7713248,48.5481639 C23.9298003,48.5481639 24.0882758,48.8654721 24.0882758,49.1827804 L24.0882758,49.1827804 C24.0882758,49.5000886 23.9298003,49.8173969 23.7713248,49.8173969 Z" id="Shape" fill="#E3EAFF"></path>
                    <path d="M4.43731396,35.6971793 L0.792377492,35.6971793 C0.633901994,35.6971793 0.475426495,35.379871 0.475426495,35.0625628 L0.475426495,35.0625628 C0.475426495,34.7452545 0.633901994,34.4279463 0.792377492,34.4279463 L4.43731396,34.4279463 C4.59578945,34.4279463 4.75426495,34.7452545 4.75426495,35.0625628 L4.75426495,35.0625628 C4.75426495,35.379871 4.59578945,35.6971793 4.43731396,35.6971793 Z" id="Shape" fill="#FF56A9"></path>
                    <path d="M24.7221778,35.6971793 L6.18054444,35.6971793 C6.02206894,35.6971793 5.70511794,35.5385252 5.70511794,35.2212169 L5.70511794,34.5866004 C5.70511794,34.4279463 5.86359344,34.110638 6.18054444,34.110638 L24.7221778,34.110638 C24.8806533,34.110638 25.1976043,34.2692921 25.1976043,34.5866004 L25.1976043,35.2212169 C25.1976043,35.5385252 25.0391288,35.6971793 24.7221778,35.6971793 Z" id="Shape" fill="#FF56A9"></path>
                    <path d="M4.43731396,38.5529537 L0.792377492,38.5529537 C0.633901994,38.5529537 0.475426495,38.2356454 0.475426495,37.9183371 L0.475426495,37.9183371 C0.475426495,37.6010289 0.633901994,37.2837206 0.792377492,37.2837206 L4.43731396,37.2837206 C4.59578945,37.2837206 4.75426495,37.6010289 4.75426495,37.9183371 L4.75426495,37.9183371 C4.75426495,38.2356454 4.59578945,38.5529537 4.43731396,38.5529537 Z" id="Shape" fill="#E3EAFF"></path>
                    <path d="M14.7382214,38.5529537 L6.18054444,38.5529537 C6.02206894,38.5529537 5.86359344,38.2356454 5.86359344,37.9183371 L5.86359344,37.9183371 C5.86359344,37.6010289 6.02206894,37.2837206 6.18054444,37.2837206 L14.7382214,37.2837206 C14.8966969,37.2837206 15.0551724,37.6010289 15.0551724,37.9183371 L15.0551724,37.9183371 C15.0551724,38.2356454 15.0551724,38.5529537 14.7382214,38.5529537 Z" id="Shape" fill="#E3EAFF"></path>
                    <path d="M19.3340108,38.5529537 L15.8475498,38.5529537 C15.6890743,38.5529537 15.5305988,38.2356454 15.5305988,37.9183371 L15.5305988,37.9183371 C15.5305988,37.6010289 15.6890743,37.2837206 15.8475498,37.2837206 L19.3340108,37.2837206 C19.4924863,37.2837206 19.6509618,37.6010289 19.6509618,37.9183371 L19.6509618,37.9183371 C19.6509618,38.2356454 19.4924863,38.5529537 19.3340108,38.5529537 Z" id="Shape" fill="#E3EAFF"></path>
                    <path d="M4.43731396,41.408728 L0.792377492,41.408728 C0.633901994,41.408728 0.475426495,41.0914197 0.475426495,40.7741115 L0.475426495,40.7741115 C0.475426495,40.4568032 0.633901994,40.139495 0.792377492,40.139495 L4.43731396,40.139495 C4.59578945,40.139495 4.75426495,40.4568032 4.75426495,40.7741115 L4.75426495,40.7741115 C4.75426495,41.0914197 4.59578945,41.408728 4.43731396,41.408728 Z" id="Shape" fill="#E3EAFF"></path>
                    <path d="M29.6349182,41.408728 L6.33901994,41.408728 C6.02206894,41.408728 5.86359344,41.2500739 5.86359344,40.9327656 L5.86359344,40.4568032 C5.86359344,40.139495 6.02206894,39.9808408 6.33901994,39.9808408 L29.7933937,39.9808408 C30.1103447,39.9808408 30.2688202,40.139495 30.2688202,40.4568032 L30.2688202,40.9327656 C30.1103447,41.2500739 29.9518692,41.408728 29.6349182,41.408728 Z" id="Shape" fill="#E3EAFF"></path>
                    <path d="M4.43731396,52.5145171 L0.792377492,52.5145171 C0.633901994,52.5145171 0.475426495,52.1972089 0.475426495,51.8799006 L0.475426495,51.8799006 C0.475426495,51.5625923 0.633901994,51.2452841 0.792377492,51.2452841 L4.43731396,51.2452841 C4.59578945,51.2452841 4.75426495,51.5625923 4.75426495,51.8799006 L4.75426495,51.8799006 C4.75426495,52.1972089 4.59578945,52.5145171 4.43731396,52.5145171 Z" id="Shape" fill="#E3EAFF"></path>
                    <path d="M32.1705262,52.5145171 L20.6018148,52.5145171 C20.4433393,52.5145171 20.2848638,52.1972089 20.2848638,51.8799006 L20.2848638,51.8799006 C20.2848638,51.5625923 20.4433393,51.2452841 20.6018148,51.2452841 L32.1705262,51.2452841 C32.3290017,51.2452841 32.4874772,51.5625923 32.4874772,51.8799006 L32.4874772,51.8799006 C32.4874772,52.1972089 32.3290017,52.5145171 32.1705262,52.5145171 Z" id="Shape" fill="#E3EAFF"></path>
                    <path d="M14.7382214,52.5145171 L6.18054444,52.5145171 C6.02206894,52.5145171 5.86359344,52.1972089 5.86359344,51.8799006 L5.86359344,51.8799006 C5.86359344,51.5625923 6.02206894,51.2452841 6.18054444,51.2452841 L14.7382214,51.2452841 C14.8966969,51.2452841 15.0551724,51.5625923 15.0551724,51.8799006 L15.0551724,51.8799006 C15.0551724,52.1972089 15.0551724,52.5145171 14.7382214,52.5145171 Z" id="Shape" fill="#E3EAFF"></path>
                    <path d="M19.3340108,52.5145171 L15.8475498,52.5145171 C15.6890743,52.5145171 15.5305988,52.1972089 15.5305988,51.8799006 L15.5305988,51.8799006 C15.5305988,51.5625923 15.6890743,51.2452841 15.8475498,51.2452841 L19.3340108,51.2452841 C19.4924863,51.2452841 19.6509618,51.5625923 19.6509618,51.8799006 L19.6509618,51.8799006 C19.6509618,52.1972089 19.4924863,52.5145171 19.3340108,52.5145171 Z" id="Shape" fill="#E3EAFF"></path>
                    <path d="M21.5526678,55.3702915 L6.18054444,55.3702915 C6.02206894,55.3702915 5.86359344,55.2116373 5.86359344,55.0529832 L5.86359344,54.4183667 C5.86359344,54.2597125 6.02206894,54.1010584 6.18054444,54.1010584 L21.5526678,54.1010584 C21.7111433,54.1010584 21.8696188,54.2597125 21.8696188,54.4183667 L21.8696188,55.0529832 C21.8696188,55.2116373 21.7111433,55.3702915 21.5526678,55.3702915 Z" id="Shape" fill="#FFC359"></path>
                    <path d="M31.0611977,44.4231565 L20.7602903,44.4231565 C20.4433393,44.4231565 20.2848638,44.2645023 20.2848638,43.9471941 L20.2848638,43.4712317 C20.2848638,43.1539234 20.4433393,42.9952693 20.7602903,42.9952693 L31.0611977,42.9952693 C31.3781487,42.9952693 31.5366242,43.1539234 31.5366242,43.4712317 L31.5366242,43.9471941 C31.5366242,44.1058482 31.2196732,44.4231565 31.0611977,44.4231565 Z" id="Shape" fill="#FF56A9"></path>
                    <path d="M14.7382214,44.4231565 L6.18054444,44.4231565 C6.02206894,44.4231565 5.86359344,44.1058482 5.86359344,43.7885399 L5.86359344,43.7885399 C5.86359344,43.4712317 6.02206894,43.1539234 6.18054444,43.1539234 L14.7382214,43.1539234 C14.8966969,43.1539234 15.0551724,43.4712317 15.0551724,43.7885399 L15.0551724,43.7885399 C15.0551724,44.1058482 15.0551724,44.4231565 14.7382214,44.4231565 Z" id="Shape" fill="#FFC359"></path>
                    <path d="M19.3340108,44.4231565 L15.8475498,44.4231565 C15.6890743,44.4231565 15.5305988,44.1058482 15.5305988,43.7885399 L15.5305988,43.7885399 C15.5305988,43.4712317 15.6890743,43.1539234 15.8475498,43.1539234 L19.3340108,43.1539234 C19.4924863,43.1539234 19.6509618,43.4712317 19.6509618,43.7885399 L19.6509618,43.7885399 C19.6509618,44.1058482 19.4924863,44.4231565 19.3340108,44.4231565 Z" id="Shape" fill="#FFC359"></path>
                </g>
                <g id="Group" transform="translate(326.603326, 45.550186)">
                    <ellipse id="Oval" fill="#FF4DD1" cx="11.6250978" cy="11.6382015" rx="11.5687114" ry="11.5817515"></ellipse>
                    <g transform="translate(4.018274, 8.782427)" id="Shape" fill="#F9FBFC">
                        <polygon points="6.81444643 1.74519543 2.21865698 3.49039087 6.81444643 5.07693217 6.81444643 6.8221276 0.316950997 4.28366152 0.316950997 2.53846608 6.81444643 0"></polygon>
                        <polygon points="8.24072592 0.15865413 14.7382214 2.69712021 14.7382214 4.44231565 8.24072592 6.98078173 8.24072592 5.2355863 12.8365154 3.649045 8.24072592 1.90384956"></polygon>
                    </g>
                </g>
                <g id="Group" transform="translate(249.270844, 238.371404)">
                    <ellipse id="Oval" fill="#FFC240" cx="12.8893405" cy="13.0096387" rx="12.5195644" ry="12.5336763"></ellipse>
                    <path d="M19.386836,12.216368 C19.386836,13.0096387 19.2283605,13.6442552 19.069885,14.2788717 C18.752934,14.9134882 18.435983,15.3894506 17.9605565,15.865413 C17.48513,16.1827213 17.0097035,16.3413754 16.3758015,16.3413754 C15.900375,16.3413754 15.583424,16.1827213 15.266473,16.0240672 C14.949522,15.865413 14.7910465,15.5481048 14.632571,15.2307965 L14.4740955,15.2307965 C13.8401935,15.865413 13.2062915,16.3413754 12.2554385,16.3413754 C11.3045856,16.3413754 10.5122081,16.0240672 10.0367816,15.5481048 C9.56135507,14.9134882 9.24440408,14.1202176 9.24440408,13.1682928 C9.24440408,12.0577139 9.56135507,11.1057891 10.3537326,10.4711726 C11.1461101,9.83655608 11.9384875,9.36059368 13.2062915,9.36059368 C13.681718,9.36059368 14.1571445,9.36059368 14.7910465,9.51924782 C15.4249485,9.67790195 15.7418995,9.67790195 16.217326,9.83655608 L16.0588505,13.8029093 C16.0588505,14.59618 16.217326,14.9134882 16.6927525,14.9134882 C17.0097035,14.9134882 17.3266545,14.59618 17.48513,14.1202176 C17.6436055,13.6442552 17.802081,13.0096387 17.802081,12.216368 C17.802081,11.4230974 17.6436055,10.6298267 17.3266545,9.99521021 C17.0097035,9.36059368 16.534277,8.88463129 15.7418995,8.4086689 C15.1079975,8.09136064 14.31562,7.93270651 13.5232425,7.93270651 C12.413914,7.93270651 11.4630611,8.09136064 10.6706836,8.56732303 C9.87830607,9.04328542 9.24440408,9.67790195 8.76897758,10.4711726 C8.29355109,11.2644432 8.13507559,12.216368 8.13507559,13.3269469 C8.13507559,14.7548341 8.61050208,16.0240672 9.40287957,16.8173378 C10.1952571,17.6106085 11.3045856,18.0865708 12.8893405,18.0865708 C13.5232425,18.0865708 14.1571445,18.0865708 14.7910465,17.9279167 C15.4249485,17.7692626 16.217326,17.6106085 16.851228,17.4519543 L16.851228,19.0384956 C15.7418995,19.514458 14.4740955,19.8317663 13.047816,19.8317663 C10.9876346,19.8317663 9.40287957,19.3558039 8.29355109,18.245225 C7.1842226,17.1346461 6.5503206,15.7067589 6.5503206,13.8029093 C6.5503206,12.5336763 6.8672716,11.2644432 7.50117359,10.1538643 C8.13507559,9.04328542 8.92745308,8.25001477 10.0367816,7.61539825 C11.1461101,6.98078173 12.413914,6.66347347 13.681718,6.66347347 C14.7910465,6.66347347 15.900375,6.98078173 16.851228,7.45674412 C17.802081,7.93270651 18.435983,8.56732303 19.069885,9.51924782 C19.2283605,10.1538643 19.386836,11.1057891 19.386836,12.216368 Z M11.1461101,13.3269469 C11.1461101,14.4375259 11.6215366,15.0721424 12.5723895,15.0721424 C13.047816,15.0721424 13.364767,14.9134882 13.681718,14.59618 C13.998669,14.2788717 14.1571445,13.6442552 14.1571445,12.8509846 L14.31562,11.1057891 C13.998669,11.1057891 13.681718,10.947135 13.364767,10.947135 C12.730865,10.947135 12.096963,11.1057891 11.7800121,11.5817515 C11.3045856,12.0577139 11.1461101,12.5336763 11.1461101,13.3269469 Z" id="Shape" fill="#FFFFFF"></path>
                </g>
                <g id="Group" transform="translate(109.491893, 35.294118)">
                    <path d="M89.911994,0 L11.6250978,0 C5.28607786,0 0.0563864133,5.2355863 0.0563864133,11.5817515 C0.0563864133,17.9279167 5.28607786,23.163503 11.6250978,23.163503 L17.3302157,23.163503 L22.8768582,28.7163976 L28.4235006,23.163503 L89.7535185,23.163503 C96.0925385,23.163503 101.32223,17.9279167 101.32223,11.5817515 C101.480705,5.07693217 96.251014,0 89.911994,0 Z" id="Shape" fill="#9570EE"></path>
                    <path d="M67.5669487,15.2307965 L16.0624118,15.2307965 C15.4285098,15.2307965 14.7946078,14.59618 14.7946078,13.9615635 L14.7946078,13.9615635 C14.7946078,13.3269469 15.4285098,12.6923304 16.0624118,12.6923304 L67.5669487,12.6923304 C68.2008507,12.6923304 68.8347527,13.3269469 68.8347527,13.9615635 L68.8347527,13.9615635 C68.8347527,14.59618 68.2008507,15.2307965 67.5669487,15.2307965 Z" id="Shape" fill="#FFFFFF"></path>
                    <path d="M51.4024479,8.09136064 L16.0624118,8.09136064 C15.4285098,8.09136064 14.7946078,7.45674412 14.7946078,6.8221276 L14.7946078,6.8221276 C14.7946078,6.18751108 15.4285098,5.55289456 16.0624118,5.55289456 L51.4024479,5.55289456 C52.0363499,5.55289456 52.6702519,6.18751108 52.6702519,6.8221276 L52.6702519,6.8221276 C52.6702519,7.45674412 52.1948254,8.09136064 51.4024479,8.09136064 Z" id="Shape" fill="#FFFFFF"></path>
                </g>
                <g id="Group" transform="translate(284.663705, 152.169327)">
                    <path d="M21.7111433,29.0865905 C21.7111433,29.0865905 20.7602903,31.9423649 20.2848638,33.6875603 C20.2848638,33.6875603 25.0391288,33.5289062 26.6238837,31.4664025 L24.8806533,27.3413951 L21.7111433,29.0865905 Z" id="Shape" fill="#F7D3A9"></path>
                    <g transform="translate(16.904053, 106.827114)" id="Shape">
                        <polygon fill="#F79A74" points="4.17318813 0.793270651 4.49013912 2.53846608 7.1842226 2.69712021 6.5503206 0.475962391"></polygon>
                        <path d="M4.49013912,2.53846608 C4.49013912,2.53846608 0.211300665,4.75962391 0.211300665,4.91827804 C0.211300665,5.07693217 7.50117359,4.28366152 7.50117359,4.28366152 L7.0257471,2.69712021 L4.49013912,2.53846608 Z" fill="#544DB8"></path>
                    </g>
                    <g transform="translate(40.675378, 102.804311)" id="Shape">
                        <polygon fill="#F79A74" points="2.27148214 1.16702888 3.22233513 2.75357019 5.75794311 1.96029953 4.49013912 0.0564499714"></polygon>
                        <path d="M3.22233513,2.75357019 C3.22233513,2.75357019 0.0528251661,6.40261518 0.0528251661,6.56126931 C0.211300665,6.71992344 6.7087961,3.38818671 6.7087961,3.38818671 L5.75794311,1.96029953 L3.22233513,2.75357019 Z" fill="#544DB8"></path>
                    </g>
                    <path d="M16.1645008,60.3414542 C16.1645008,60.3414542 8.71615241,84.6155361 20.6018148,108.096347 L24.0882758,108.096347 C24.0882758,108.096347 17.1153538,81.6011077 25.8315062,60.0241459 L16.1645008,60.3414542 Z" id="Shape" fill="#FFC240"></path>
                    <path d="M22.6619963,61.1347249 C22.6619963,61.1347249 23.7713248,86.5193857 42.7883846,104.605957 L46.11637,103.495378 C46.11637,103.495378 30.5857712,80.807837 31.6950997,57.644334 L22.6619963,61.1347249 Z" id="Shape" fill="#FFC240"></path>
                    <g id="Shape">
                        <path d="M19.3340108,3.86058384 L19.3340108,2.43269666 L19.3340108,2.27404253 L19.0170598,1.16346362 L18.2246823,1.32211775 L17.4323048,0.528847101 C17.1153538,0.21153884 16.4814518,0.370192971 16.3229763,0.687501231 C16.0060253,1.32211775 15.6890743,1.95673427 15.6890743,2.59135079 C15.6890743,2.75000492 15.6890743,3.06731318 15.8475498,3.22596732 L17.1153538,4.65385449 C17.2738293,4.81250862 17.5907803,4.97116275 17.9077313,4.81250862 L19.0170598,4.49520036 C19.0170598,4.49520036 19.3340108,4.1778921 19.3340108,3.86058384 Z" fill="#F79A74"></path>
                        <path d="M32.1705262,36.7019888 C32.1705262,36.7019888 22.5035208,26.2308162 21.8696188,22.4231171 C21.2357168,18.4567638 19.8094373,4.01923797 19.8094373,4.01923797 L16.7984028,4.65385449 C16.7984028,4.65385449 15.8475498,25.4375456 16.6399273,27.8173575 C17.5907803,30.1971695 23.4543738,42.4135375 27.2577857,43.5241164 C30.9027222,44.6346953 33.5968057,40.8269962 32.1705262,36.7019888 Z" fill="#FF4F72"></path>
                        <path d="M18.7001088,19.5673427 C18.7001088,19.5673427 16.4814518,26.8654327 17.9077313,28.7692823 C19.3340108,30.6731318 24.4052268,28.9279364 26.3069327,26.0721621 C28.3671142,23.0577336 28.6840652,16.5529143 25.3560798,15.9182977 C22.0280943,15.2836812 19.4924863,16.5529143 18.7001088,19.5673427 Z" fill="#F79A74"></path>
                        <path d="M31.8535752,62.2453038 C31.8535752,62.2453038 33.7552812,41.1443044 33.7552812,35.4327558 L33.7552812,34.6394851 C32.3290017,30.9904401 28.6840652,30.9904401 27.2577857,31.3077484 C25.8315062,31.6250566 20.1263883,33.3702521 20.1263883,33.6875603 L20.1263883,33.6875603 C18.2246823,35.1154475 16.6399273,36.8606429 16.4814518,37.1779512 C16.4814518,37.1779512 11.2517604,48.1250862 15.8475498,61.293379 L31.8535752,62.2453038 Z" fill="#FF4F72"></path>
                        <path d="M3.96188746,4.97116275 L3.64493646,3.54327558 L3.64493646,3.38462145 L3.16950997,2.43269666 L2.37713248,2.75000492 L1.42627949,2.1153884 C0.950852991,1.79808014 0.475426495,2.1153884 0.316950997,2.59135079 C0.158475498,3.22596732 0,4.01923797 0,4.49520036 C0,4.65385449 0.158475498,4.97116275 0.316950997,5.12981688 L1.90170598,6.39904992 C2.06018148,6.55770405 2.37713248,6.55770405 2.69408347,6.39904992 L3.64493646,5.92308753 C3.80341196,5.60577927 3.96188746,5.28847101 3.96188746,4.97116275 Z" fill="#F79A74"></path>
                        <path d="M22.3450453,35.1154475 C22.3450453,35.1154475 10.9348094,26.5481245 9.6670054,22.8990795 C8.39920142,19.2500345 4.43731396,5.12981688 4.43731396,5.12981688 L1.58475498,6.24039579 C1.58475498,6.24039579 4.27883846,26.8654327 5.54664245,29.0865905 C6.81444643,31.3077484 14.7382214,42.2548834 18.7001088,42.7308457 C22.6619963,42.8894999 24.5637023,38.7644925 22.3450453,35.1154475 Z" fill="#FF4F72"></path>
                        <path d="M26.7823592,15.7596436 C26.7823592,15.7596436 20.9187658,13.2211775 18.2246823,18.4567638 C16.7984028,21.6298464 21.3941923,18.6154179 22.3450453,19.5673427 C23.2958983,20.5192675 21.2357168,22.5817712 21.7111433,23.3750419 C22.3450453,24.1683125 23.2958983,22.1058088 23.9298003,23.2163877 C24.5637023,24.3269666 22.9789473,24.4856208 22.0280943,25.9135079 C21.0772413,27.182741 22.9789473,29.0865905 21.3941923,30.3558236 C19.9679128,31.4664025 15.8475498,32.4183273 18.3831578,38.7644925 C20.9187658,45.1106577 14.2627949,46.697199 17.1153538,55.264522 C19.9679128,63.8318451 38.6680216,68.7501231 42.1544826,58.4376046 C45.6409436,48.2837403 33.9137567,45.7452742 34.7061342,41.1443044 C35.4985117,36.5433347 38.0341196,35.4327558 34.5476587,30.9904401 C31.0611977,26.3894703 28.8425407,23.8510042 29.9518692,20.8365758 C30.9027222,17.8221473 28.0501632,15.7596436 26.7823592,15.7596436 Z" fill="#544DB8"></path>
                    </g>
                </g>
                <path d="M327.293614,132.549099 C320.320692,132.549099 314.77405,138.101994 314.77405,145.082776 C314.77405,152.063558 320.320692,157.616452 327.293614,157.616452 C334.266536,157.616452 339.813178,152.063558 339.813178,145.082776 C339.813178,138.101994 334.266536,132.549099 327.293614,132.549099 Z M320.954594,144.130851 C320.954594,143.33758 321.588496,142.54431 322.539349,142.54431 C323.490202,142.54431 324.124104,143.178926 324.124104,144.130851 C324.124104,145.082776 323.490202,145.717392 322.539349,145.717392 C321.588496,145.717392 320.954594,145.082776 320.954594,144.130851 Z M327.293614,152.063558 C325.233433,152.063558 323.648678,150.63567 323.331727,148.573167 L331.255501,148.573167 C331.097026,150.477016 329.353796,152.063558 327.293614,152.063558 Z M332.206354,145.717392 C331.413977,145.717392 330.6216,145.082776 330.6216,144.130851 C330.6216,143.178926 331.255501,142.54431 332.206354,142.54431 C332.998732,142.54431 333.791109,143.178926 333.791109,144.130851 C333.791109,145.082776 332.998732,145.717392 332.206354,145.717392 Z" id="Shape" fill="#FEC800"></path>
                <polygon id="Shape" fill="#F9FBFC" points="140.926428 234.563705 140.13405 233.135818 160.101963 223.140608 185.141092 223.457916 212.398878 213.304052 233.159168 213.304052 255.504213 205.847308 255.662689 205.847308 273.411945 207.909811 283.554376 202.674225 284.188278 204.102112 273.728896 209.496353 273.57042 209.496353 255.662689 207.433849 233.317643 214.890593 212.557353 214.890593 185.458043 225.203112 185.299567 225.203112 160.418914 224.727149"></polygon>
                <g id="Group" transform="translate(199.822927, 117.265418)">
                    <path d="M14.1607058,77.7934085 C14.1607058,77.7934085 33.8116676,109.841543 31.4345351,132.053121 L44.9049525,132.370429 L39.1998345,129.038693 L40.7845895,128.721384 C40.7845895,128.721384 35.8718491,94.2934381 31.2760596,82.0770701 C26.3633192,69.2260855 24.9370397,73.9857094 24.9370397,73.9857094 L14.1607058,77.7934085 Z" id="Shape" fill="#544DB8"></path>
                    <path d="M7.02930834,75.889559 C7.02930834,75.889559 8.13863683,98.1011372 6.55388185,106.66846 C4.96912686,115.235783 0.0563864133,131.894467 0.0563864133,131.894467 L12.5759508,132.211775 L9.24796532,129.831963 L7.18778384,128.56273 C7.18778384,128.56273 16.2208873,104.447302 17.0132647,92.8655509 C17.8056422,81.2837994 19.2319217,74.7789801 19.2319217,74.7789801 L7.02930834,75.889559 Z" id="Shape" fill="#544DB8"></path>
                    <g transform="translate(4.018274, 0.000000)" id="Shape">
                        <polyline fill="#F7D3A9" points="28.6840652 10.0480949 30.7442467 8.62020774 31.6950997 5.28847101 30.7442467 5.12981688 30.1103447 6.24039579 30.7442467 0.370192971 29.6349182 0.687501231 28.6840652 6.24039579 27.4162612 8.937516 28.5255897 9.73078666"></polyline>
                        <polygon fill="#F7D3A9" points="40.8866786 16.235606 41.2036296 13.6971399 44.2146641 10.6827114 44.8485661 11.6346362 43.7392376 12.9038693 49.4443555 11.4759821 49.4443555 12.7452151 44.2146641 14.8077188 43.1053356 16.7115684"></polygon>
                        <g transform="translate(0.000000, 7.932707)">
                            <path d="M27.2577857,0.0528847101 C27.2577857,0.0528847101 3.80341196,28.451974 1.10932849,34.1635227 C1.10932849,34.1635227 0,36.2260264 0,42.0962292 C0,47.966432 2.06018148,69.860702 2.06018148,69.860702 L25.8315062,71.2885892 C25.8315062,71.2885892 18.0662068,44.6346953 17.9077313,44.0000788 C17.7492558,43.3654623 13.7873684,39.2404549 10.1424319,38.2885301 L30.1103447,2.1153884 L27.2577857,0.0528847101 Z" fill="#6DB8FF"></path>
                            <g transform="translate(5.810768, 21.153884)" fill="#F7D3A9">
                                <path d="M6.7087961,14.4375259 C6.7087961,14.4375259 7.65964909,17.4519543 8.29355109,19.1971498 C8.29355109,19.1971498 3.38081063,19.0384956 1.63758015,16.8173378 L3.38081063,12.5336763 L6.7087961,14.4375259 Z"></path>
                                <path d="M10.3537326,5.2355863 C10.3537326,5.2355863 11.7800121,13.6442552 10.3537326,15.5481048 C8.92745308,17.4519543 4.01471263,14.2788717 1.95453115,11.1057891 C-0.105650332,8.09136064 -0.581076828,1.11057891 2.90538414,0.634616521 C6.5503206,1.36557432e-13 9.56135507,2.06250369 10.3537326,5.2355863 Z"></path>
                            </g>
                            <path d="M13.9458439,41.778921 C13.9458439,41.778921 32.6459527,30.0385153 34.2307077,27.5000492 C35.8154626,25.1202373 39.9358256,7.03366644 39.9358256,7.03366644 L43.5807621,7.98559122 C43.5807621,7.98559122 41.5205806,28.1346658 40.8866786,30.1971695 C40.2527766,32.2596732 21.8696188,51.9327853 17.5907803,51.9327853 C13.3119419,52.0914394 11.8856624,46.697199 13.9458439,41.778921 Z" fill="#6DB8FF"></path>
                        </g>
                    </g>
                    <path d="M18.9149707,32.4183273 C18.9149707,32.4183273 19.8658237,29.0865905 17.8056422,27.5000492 C15.7454608,25.9135079 12.2589998,26.0721621 11.6250978,26.7067786 C11.6250978,27.6587034 13.8437548,28.2933199 13.2098528,28.7692823 C12.7344263,29.2452447 9.72339182,28.7692823 9.08948982,31.6250566 C8.45558783,34.480831 9.40644082,35.1154475 9.40644082,35.1154475 C9.40644082,35.1154475 7.82168584,36.8606429 9.72339182,39.399109 C11.4666223,41.9375751 15.5869853,43.8414247 16.5378383,43.6827705 C17.4886912,43.3654623 17.0132647,39.5577631 17.0132647,39.5577631 C17.0132647,39.5577631 14.6361323,39.2404549 14.4776568,37.8125677 C14.3191813,36.2260264 15.5869853,36.2260264 16.0624118,36.7019888 C16.5378383,37.1779512 16.6963137,38.4471842 17.1717402,38.2885301 C17.6471667,37.9712218 17.0132647,35.1154475 17.0132647,35.1154475 C17.0132647,35.1154475 18.5980197,33.6875603 18.9149707,32.4183273 Z" id="Shape" fill="#544DB8"></path>
                </g>
                <g id="Group" transform="translate(210.180221, 233.082933)">
                    <path d="M19.4924863,0.528847101 L5.38816695,4.33654623 C1.58475498,5.44712514 -0.792377492,9.4134784 0.316950997,13.3798317 L3.01103447,23.0577336 C4.12036296,26.8654327 8.08225042,29.2452447 12.0441379,28.1346658 L16.3229763,27.0240869 L20.4433393,31.1490942 L21.8696188,25.4375456 L26.1484572,24.3269666 C29.9518692,23.2163877 32.3290017,19.2500345 31.2196732,15.2836812 L28.5255897,5.60577927 C27.4162612,1.79808014 23.4543738,-0.581731811 19.4924863,0.528847101 Z" id="Shape" fill="#9570EE"></path>
                    <g transform="translate(6.339020, 11.105789)" id="Oval" fill="#FFFFFF">
                        <ellipse transform="translate(2.358353, 5.792468) rotate(-15.337028) translate(-2.358353, -5.792468) " cx="2.35835313" cy="5.79246758" rx="1.58477686" ry="1.5865632"></ellipse>
                        <ellipse transform="translate(9.516850, 3.846368) rotate(-15.337028) translate(-9.516850, -3.846368) " cx="9.51684987" cy="3.84636843" rx="1.58477686" ry="1.5865632"></ellipse>
                        <ellipse transform="translate(16.490184, 2.005695) rotate(-15.337028) translate(-16.490184, -2.005695) " cx="16.4901838" cy="2.00569494" rx="1.58477686" ry="1.5865632"></ellipse>
                    </g>
                </g>
                <ellipse id="Oval" fill="#FFC240" cx="160.101963" cy="223.457916" rx="2.53560798" ry="2.53846608"></ellipse>
                <ellipse id="Oval" fill="#FF4F72" cx="255.662689" cy="206.799232" rx="2.53560798" ry="2.53846608"></ellipse>
            </g>
        </g>
    </g>
</svg>