<?xml version="1.0" encoding="UTF-8"?>
<svg width="78px" height="58px" viewBox="0 0 78 58" version="1.1" xmlns="http://www.w3.org/2000/svg" xmlns:xlink="http://www.w3.org/1999/xlink">
    <!-- Generator: Sketch 42 (36781) - http://www.bohemiancoding.com/sketch -->
    <title>heading-bg</title>
    <desc>Created with Sketch.</desc>
    <defs></defs>
    <g id="Page-1" stroke="none" stroke-width="1" fill="none" fill-rule="evenodd">
        <g id="heading-bg" fill-rule="nonzero">
            <g id="stack" transform="translate(39.269673, 32.858169) rotate(122.000000) translate(-39.269673, -32.858169) translate(-4.730327, -8.141831)">
                <path d="M48.5737008,5.30689201 C58.7743095,11.5175638 56.5546172,26.4421884 61.6424514,39.465587 C66.7552259,52.4889855 65.6079692,63.8646548 60.3455525,71.2160622 C55.0831357,78.5991568 41.9894448,81.6728056 29.8434877,71.8498042 C23.6832178,66.8749294 15.1785538,58.9531541 16.0265262,40.2577645 C16.9493196,19.4393391 36.652207,-1.94945413 48.5737008,5.30689201 Z" id="Shape" fill="#9570EE" transform="translate(40.452987, 40.960546) rotate(-10.000000) translate(-40.452987, -40.960546) "></path>
                <path d="M17.1746073,59.4804176 C26.0853858,68.6298017 37.3476198,70.8699164 50.7756679,68.8727057 C64.1727759,66.875495 79.3644156,61.1807456 78.3433889,46.5255374 C77.3223622,31.8703293 60.7074731,30.3859159 50.8684885,19.2663104 C44.9279695,12.5459663 29.8291504,11.4933823 19.711704,20.0490011 C12.3169954,26.3375159 2.0757882,43.9885401 17.1746073,59.4804176 Z" id="Shape" fill="#6A64FF" opacity="0.34" transform="translate(43.892192, 41.737940) rotate(26.000000) translate(-43.892192, -41.737940) "></path>
            </g>
        </g>
    </g>
</svg>