<?xml version="1.0" encoding="UTF-8"?>
<svg width="411px" height="92px" viewBox="0 0 411 92" version="1.1" xmlns="http://www.w3.org/2000/svg" xmlns:xlink="http://www.w3.org/1999/xlink">
    <!-- Generator: Sketch 42 (36781) - http://www.bohemiancoding.com/sketch -->
    <title>logo-with-text-v2</title>
    <desc>Created with Sketch.</desc>
    <defs>
        <linearGradient x1="-9.70685806%" y1="85.0491715%" x2="70.7017043%" y2="-0.00790273556%" id="linearGradient-1">
            <stop stop-color="#9570EE" offset="0%"></stop>
            <stop stop-color="#29265B" offset="100%"></stop>
        </linearGradient>
    </defs>
    <g id="Page-1" stroke="none" stroke-width="1" fill="none" fill-rule="evenodd">
        <g id="logo-with-text-v2" fill="url(#linearGradient-1)">
            <g id="text" transform="translate(76.000000, 12.000000)">
                <path d="M287.428557,18.1473662 L264.998495,18.1473662 L264.998495,12.0842083 L287.428557,12.0842083 L287.428557,1.0827086 L296.956376,1.0827086 L296.956376,12.0842083 L323.100176,12.0842083 L320.084219,2.73082303 L327.317298,2.73082303 L334.550377,21.0045102 L325.976487,21.0045102 L324.156389,15.3598392 L324.156389,18.1473662 L296.956376,18.1473662 L296.956376,36.7699277 L315.236101,36.7699277 L315.236101,18.1500015 L324.156401,18.1500015 L324.156401,36.7699277 L334.550373,36.7699277 L334.550373,42.9172963 L296.956376,42.9172963 L296.956376,79.2120315 L287.428557,79.2120315 L287.428557,42.9172963 L259.885713,42.9172963 L259.885713,36.7699277 L287.428557,36.7699277 L287.428557,18.1473662 Z M314.021051,64.5714322 L334.550375,64.5714322 L334.550375,70.6345901 L314.021051,70.6345901 L314.021051,64.5714322 Z M325.281221,42.9199982 L334.550377,42.9199982 L334.550377,64.5699997 L325.281221,64.5699997 L325.281221,42.9199982 Z" id="4"></path>
                <path d="M183.933846,12.9503792 L174.309761,12.9503792 L174.309761,7.06165744 L203.933821,7.06165744 L203.933821,12.9503792 L191.903771,12.9503792 L186.774399,27.8496259 L196.177437,27.8496259 L201.918784,27.8496259 L201.918784,72.1082736 L196.177437,72.1082736 L186.553377,72.1082736 L179.422543,72.1082736 L179.422543,44.5894743 L173.041438,44.5894743 L183.933846,12.9503792 Z M186.640588,66.1654135 L194.460137,66.1654135 L194.460137,33.8646635 L186.640588,33.8646635 L186.640588,66.1654135 Z M205.579549,58.3362406 L205.579549,52.4463158 L235.808722,52.4463158 L235.808722,58.3362406 L205.579549,58.3362406 Z M225.414737,78.2580451 L225.414737,72.3681203 L239.793083,72.3681203 L239.793083,41.3593985 L209.30406,41.3593985 L209.30406,15.6342857 L217.532632,15.6342857 L217.532632,35.4694737 L234.769323,35.4694737 L234.769323,10.7837594 L207.744962,10.7837594 L207.744962,4.89383459 L243.171128,4.89383459 L243.171128,35.4694737 L248.36812,35.4694737 L248.36812,78.2580451 L225.414737,78.2580451 Z" id="3"></path>
                <path d="M121.044211,33.2174436 C120.062551,29.2330628 118.445726,24.2093536 116.193684,18.1461654 L124.335639,18.1461654 C126.414446,23.4009285 128.14676,28.4246377 129.532632,33.2174436 L121.044211,33.2174436 Z M85.6180451,60.7615038 L85.6180451,54.8715789 L143.997594,54.8715789 L143.997594,60.7615038 L85.6180451,60.7615038 Z M132.997293,78.3446617 L132.997293,72.4547368 L151.706466,72.4547368 L151.706466,45.2571429 L95.6655639,45.2571429 L95.6655639,7.14586466 L112.815639,7.14586466 C113.56632,5.12480192 114.201501,2.84392248 114.721203,0.303157895 L124.682105,0.303157895 C124.104659,3.13264573 123.498349,5.41352517 122.863158,7.14586466 L153.092331,7.14586466 L153.092331,35.1230075 L135.422556,35.1230075 L135.422556,29.3196992 L144.517293,29.3196992 L144.517293,13.122406 L104.673684,13.122406 L104.673684,39.2806015 L160.714586,39.2806015 L160.714586,78.3446617 L132.997293,78.3446617 Z" id="2"></path>
                <path d="M16.7807703,11.3804512 L19.3048335,11.3804512 L22.8571429,22.8571429 L30.5684209,22.8571429 L27.0161115,11.3804512 L38.4962406,11.3804512 L38.4962406,6.01503759 L18.0421423,6.01503759 L19.1734176,1.20300752 L11.0350719,1.20300752 L6.01503759,22.556391 L14.1533833,22.556391 L16.7807703,11.3804512 Z M52.8709958,11.3804512 L55.3950591,11.3804512 L58.9473684,22.8571429 L66.6586464,22.8571429 L63.1063371,11.3804512 L74.5864662,11.3804512 L74.5864662,6.01503759 L54.1323679,6.01503759 L55.2636432,1.20300752 L47.1252975,1.20300752 L42.1052632,22.556391 L50.2436089,22.556391 L52.8709958,11.3804512 Z M26.7503504,35.380455 L13.6026892,60.4150391 L33.3052602,60.4150391 L33.3052602,35.380455 L26.7503504,35.380455 Z M18.3292978,35.380455 L2.81503319,35.380455 L2.81503319,29.2330864 L33.3052602,29.2330864 L33.3052602,23.3443594 L42.4842077,23.3443594 L42.4842077,29.2330864 L73.148868,29.2330864 L73.148868,35.380455 L57.6108557,35.380455 L75.5729411,69.5819505 L67.1518885,69.5819505 L62.406015,60.5453622 L62.406015,66.3037608 L42.4842077,66.3037608 L42.4842077,79.5548839 L33.3052602,79.5548839 L33.3052602,66.3037608 L13.4676688,66.3037608 L13.4676688,60.6721327 L8.78841128,69.5819505 L0.367358653,69.5819505 L18.3292978,35.380455 Z M49.1898031,35.380455 L42.4842077,35.380455 L42.4842077,60.4150391 L62.3375714,60.4150391 L49.1898031,35.380455 Z" id="1"></path>
            </g>
            <path d="M73.5284395,30.0647122 L66.6365874,25.9525444 C65.4894161,23.1022649 63.7863079,21.1785469 62.2596877,19.4754388 L62.0920242,19.2813021 C58.465198,15.230905 54.4412741,13.3248358 50.1173208,13.6248652 C44.6638449,14.0043141 39.1927203,17.9399941 34.2510594,24.9995098 C33.2097808,24.5759388 32.1685023,24.1700167 31.1272237,23.7640945 C22.7881708,20.5255417 14.9079865,17.4634768 10.3634233,5.07402687 L8.50147607,0 L7.84847088,5.36523189 C7.19546568,10.7657613 7.08074855,15.4250417 7.38960236,19.4930876 C5.66884542,17.48995 4.22164472,15.1338367 3.02152706,12.3276792 L1.11545784,7.88900873 L0.533047796,12.680655 C-2.83787092,40.5833905 10.4251941,46.6016276 22.1263413,51.9050887 C22.1351657,51.9050887 22.14399,51.9139131 22.14399,51.9139131 C20.97917,56.3349348 20.3349892,62.4061182 19.7172815,68.3008138 C19.4172521,71.1157957 19.0907495,74.3102265 18.6671786,77.2663987 C18.1024173,77.3546426 17.5553049,77.4428866 17.0170168,77.5223061 C12.4106829,78.2282577 9.07506172,78.7400726 8.1396759,80.9814688 C7.36312918,82.8345916 8.79268109,84.8024316 9.260374,85.4554368 C10.7075747,87.4673988 12.8430782,90 15.1991915,90 C15.4815722,90 15.7639528,89.9647024 16.0463334,89.8852829 C18.6583542,89.1881557 19.9820134,85.5436808 20.9615212,79.5077949 C23.0176051,79.1459947 25.1707574,78.6783018 27.332734,77.9988234 C45.916909,72.1041279 49.4643156,59.0881459 52.5881512,47.5987842 C54.7854255,39.5509364 56.7091435,32.4914207 63.5392249,29.1822728 C65.5158893,28.449848 73.5284395,30.0647122 73.5284395,30.0647122 Z M15.3756794,87.3968036 C14.7667962,87.5556427 13.3813663,86.7437984 11.3605799,83.9464653 C10.3722477,82.5698598 10.4957892,82.0756937 10.5310868,81.9962741 C10.9105358,81.0961859 14.5108888,80.540249 17.4052902,80.0990293 C17.6788464,80.0549073 17.961227,80.0107854 18.2436077,79.9666634 C17.5553049,83.9641141 16.6375678,87.0614766 15.3756794,87.3968036 Z M2.71267325,17.445828 C4.17752274,19.8813609 5.88945529,21.9462692 7.88376845,23.6934994 C10.1428135,37.5830964 17.8818075,43.5660359 24.9413231,49.0106873 C26.4767678,50.1931562 27.9592661,51.3403275 29.3358716,52.5316207 C27.3680316,51.4462202 25.2766501,50.4931856 23.2029174,49.5577998 C12.4636292,44.6779096 1.38018967,39.6480047 2.71267325,17.445828 Z M26.5561873,75.5456417 C24.826606,76.0927542 23.0705515,76.4986763 21.3674433,76.8163545 C21.6939459,74.3719973 21.9939753,71.6187862 22.3116535,68.5831944 C22.902888,62.9797039 23.5029468,57.2085499 24.5530498,53.0257868 C31.8243509,56.4231787 37.6837488,60.0676537 37.5513829,69.9950976 C34.6922791,72.2011962 31.1183993,74.098441 26.5561873,75.5456417 Z M40.0928086,67.7625257 C39.4751009,56.9526424 33.1744832,52.0815766 26.5208897,46.9546034 C17.6611976,40.1156976 8.51912486,33.0650064 9.96632557,10.6157466 C15.0844744,20.3225806 22.7440489,23.2964016 30.1830135,26.190803 C38.4867687,29.4205314 46.3404799,32.4649475 50.6556088,44.8632219 C50.4614722,45.5515247 50.2761599,46.2398274 50.0908476,46.9369546 C48.0788856,54.3229728 46.0139773,61.8766546 40.0928086,67.7625257 Z M51.8557265,40.8481224 C48.1141832,32.5178939 42.563639,28.7234043 36.6865923,26.0496127 C41.0281944,20.0137268 45.8198406,16.5369154 50.2938087,16.2192372 C53.7706201,15.9721541 57.0885925,17.5870183 60.1506574,21.0108834 L60.3271453,21.2050201 C61.6243313,22.6522208 62.9568148,24.1435435 63.9274982,26.1996274 C56.9297534,28.8645946 53.9559324,34.4151387 51.8557265,40.8481224 Z" id="bird" fill-rule="nonzero"></path>
        </g>
    </g>
</svg>