<?xml version="1.0" encoding="UTF-8"?>
<svg width="512px" height="512px" viewBox="0 0 512 512" version="1.1" xmlns="http://www.w3.org/2000/svg" xmlns:xlink="http://www.w3.org/1999/xlink">
    <!-- Generator: Sketch 42 (36781) - http://www.bohemiancoding.com/sketch -->
    <title>wechat_pay</title>
    <desc>Created with Sketch.</desc>
    <defs></defs>
    <g id="Page-1" stroke="none" stroke-width="1" fill="none" fill-rule="evenodd">
        <g id="wechat_pay" fill-rule="nonzero">
            <path d="M481.857,102 C495.711,102 506.983,113.271 506.983,127.126 L506.983,385.025 C506.983,398.879 495.712,410.151 481.857,410.151 L30.126,410.151 C16.272,410.151 5,398.88 5,385.025 L5,127.126 C5,113.272 16.271,102 30.126,102 L481.857,102 L481.857,102 Z M481.857,97 L30.126,97 C13.488,97 0,110.488 0,127.126 L0,385.025 C0,401.665 13.488,415.151 30.126,415.151 L481.857,415.151 C498.497,415.151 511.983,401.665 511.983,385.025 L511.983,127.126 C511.983,110.488 498.496,97 481.857,97 L481.857,97 Z" id="Shape" fill="#22AC38"></path>
            <g id="logo" transform="translate(30.000000, 205.000000)">
                <path d="M42.0898109,64.8766233 C41.5620389,65.1441558 41.0342669,65.2779219 40.3745519,65.2779219 C38.9231791,65.2779219 37.7356925,64.4753247 37.0759776,63.2714286 L36.8120914,62.7363636 L26.3885961,39.7285714 C26.2566531,39.4610389 26.2566531,39.1935064 26.2566531,38.9259739 C26.2566531,37.8558442 27.048311,37.0532467 28.1038548,37.0532467 C28.4996838,37.0532467 28.8955127,37.1870131 29.2913416,37.4545456 L41.5620389,46.283117 C42.4856396,46.818182 43.5411836,47.2194806 44.7286703,47.2194806 C45.3883852,47.2194806 46.0481001,47.0857142 46.707815,46.818182 L104.234954,20.8675325 C93.9434021,8.56103897 76.9227575,0.535064936 57.6590823,0.535064936 C26.2566531,0.535064936 0.659714902,22.0714286 0.659714902,48.6909092 C0.659714902,63.1376622 8.31240777,76.2467533 20.319219,85.0753247 C21.2428198,85.7441558 21.9025347,86.9480519 21.9025347,88.1519481 C21.9025347,88.5532467 21.7705918,88.9545456 21.6386488,89.3558442 C20.7150479,92.9675325 19.1317322,98.8532467 19.1317322,99.1207792 C18.9997892,99.5220781 18.8678462,100.057143 18.8678462,100.592208 C18.8678462,101.662338 19.6595041,102.464935 20.7150479,102.464935 C21.1108769,102.464935 21.5067058,102.331169 21.7705918,102.063636 L34.173232,94.7064936 C35.0968328,94.1714286 36.1523765,93.77013 37.2079205,93.77013 C37.7356925,93.77013 38.3954071,93.9038961 38.9231791,94.0376622 C44.7286703,95.7766233 51.0619334,96.7129869 57.5271394,96.7129869 C88.9295688,96.7129869 114.526507,75.1766233 114.526507,48.5571428 C114.526507,40.5311689 112.151533,32.9064936 108.061301,26.2181818 L42.4856396,64.6090908 L42.0898109,64.8766233 Z" id="XMLID_81_" fill="#22AC38"></path>
                <rect id="XMLID_80_" fill="#494949" x="251.615264" y="34.6454544" width="42.7495258" height="3.87922078"></rect>
                <rect id="XMLID_79_" fill="#494949" x="251.615264" y="46.6844156" width="42.7495258" height="4.14675325"></rect>
                <path d="M293.177302,82.6675325 L293.177302,59.1246753 L252.670807,59.1246753 L252.670807,82.5337661 L293.177302,82.5337661 L293.177302,82.6675325 Z M256.76104,63.0038961 L289.08707,63.0038961 L289.08707,78.6545456 L256.76104,78.6545456 L256.76104,63.0038961 Z" id="XMLID_76_" fill="#494949"></path>
                <path d="M239.872338,85.0753247 L239.872338,31.1675325 C242.247312,25.8168831 244.490343,20.1987013 246.205601,14.4467533 L242.379255,12.1727273 C238.552908,25.6831169 233.143246,37.8558442 226.150268,48.1558442 L228.393299,52.1688311 C230.768273,48.5571428 233.275189,44.2766233 235.782106,39.8623378 L235.782106,85.2090908 L239.872338,85.2090908 L239.872338,85.0753247 Z" id="XMLID_75_" fill="#494949"></path>
                <path d="M395.037283,85.0753247 L395.037283,31.1675325 C397.412257,25.8168831 399.655286,20.1987013 401.370548,14.4467533 L397.544199,12.1727273 C393.717853,25.6831169 388.308191,37.8558442 381.315213,48.1558442 L383.558245,52.1688311 C385.933217,48.5571428 388.440133,44.2766233 390.94705,39.8623378 L390.94705,85.2090908 L395.037283,85.2090908 L395.037283,85.0753247 Z" id="XMLID_74_" fill="#494949"></path>
                <path d="M298.85085,22.2051948 L273.781684,22.2051948 L276.420544,20.6 L276.552487,20.6 L276.552487,20.4662338 C276.288601,19.7974026 275.496943,18.0584416 274.573342,16.1857143 C273.781684,14.4467533 272.990026,12.8415584 272.594198,11.9051948 L272.594198,11.7714286 L268.767851,14.0454546 L268.767851,14.1792208 C270.087281,16.7207792 271.274768,19.1285714 272.330311,21.4025974 C272.462255,21.6701299 272.594198,21.9376623 272.594198,22.0714286 L247.525031,22.0714286 L247.525031,26.2181818 L298.85085,26.2181818 L298.85085,22.2051948 Z" id="XMLID_73_" fill="#494949"></path>
                <polygon id="XMLID_72_" fill="#494949" points="188.546519 18.9948052 184.720172 18.9948052 184.720172 32.6389611 177.463309 32.6389611 177.463309 13.2428571 173.636962 13.2428571 173.636962 32.6389611 166.116212 32.6389611 166.116212 18.9948052 162.289866 18.9948052 162.289866 36.518182 188.546519 36.518182"></polygon>
                <rect id="XMLID_71_" fill="#494949" x="163.477353" y="44.1428572" width="23.2219646" height="3.87922078"></rect>
                <path d="M168.491186,63.1376622 L168.491186,59.6597403 L180.234111,59.6597403 L180.234111,68.2207792 C180.102168,71.2974025 179.970225,72.2337661 178.914681,73.5714286 L181.289655,77.718182 L181.421598,77.5844156 C183.532686,75.8454544 186.963203,72.9025975 191.845093,68.4883117 L191.977036,68.4883117 L190.129835,65.2779219 L189.997892,65.1441558 L184.060458,70.2272728 L184.060458,55.6467533 L164.400954,55.6467533 L164.400954,61.5324675 C164.928726,69.5584417 162.949581,75.3103897 158.46352,78.6545456 L158.331577,78.6545456 L160.442664,82.4 L160.574607,82.5337661 L160.70655,82.4 C166.248155,77.9857142 168.887015,71.4311689 168.491186,63.1376622 Z" id="XMLID_70_" fill="#494949"></path>
                <path d="M143.42202,31.5688311 L145.796993,35.581818 C151.734427,29.5623377 156.880204,22.338961 160.574607,14.4467533 L157.012147,12.3064935 C153.1858,20.0649351 148.567796,26.6194805 143.42202,31.5688311 Z" id="XMLID_69_" fill="#494949"></path>
                <path d="M142.366476,56.0480519 L144.477563,59.7935064 L144.609506,59.9272728 L144.74145,59.7935064 C146.98448,57.118182 149.227511,54.3090908 151.338599,51.3662339 L151.338599,85.0753247 L155.164945,85.0753247 L155.164945,44.9454544 C156.880204,41.8688311 158.595462,38.3909092 160.178778,34.5116883 L160.178778,34.3779219 L156.484375,32.2376622 L156.484375,32.3714286 C152.789971,41.3337661 148.171967,49.3597403 142.366476,56.0480519 Z" id="XMLID_68_" fill="#494949"></path>
                <path d="M216.650374,30.4987014 L216.650374,26.6194805 L199.629729,26.6194805 C201.081102,22.0714286 202.796361,16.8545454 203.324133,12.4402598 L199.365843,12.4402598 C196.858927,24.2116883 193.03258,34.5116883 188.15069,42.5376622 L190.525664,46.818182 L192.240922,43.2064936 C192.900637,42.0025975 193.428409,41.0662339 193.824238,40.2636364 C195.011725,50.6974025 197.122813,59.1246753 200.025558,65.2779219 C197.254756,70.2272728 192.900637,75.3103897 187.095146,80.5272728 L186.963203,80.5272728 L189.206234,84.4064936 L189.338177,84.5402597 L189.47012,84.4064936 C195.539497,78.6545456 199.761672,73.5714286 202.004703,69.4246753 C204.51162,73.9727272 208.865738,79.4571428 213.747628,84.6740261 L213.879571,84.8077922 L216.122602,80.7948053 L216.122602,80.6610389 L215.990659,80.6610389 C210.71294,75.4441558 206.490764,70.0935064 204.115791,65.5454544 C208.469909,57.5194806 211.108769,45.7480519 212.164313,30.4987014 L216.650374,30.4987014 Z M202.532475,60.5961039 C200.025558,54.0415583 198.178357,45.0792208 196.99087,33.9766233 C197.386699,32.7727272 197.914471,31.5688311 198.442242,30.4987014 L208.733795,30.4987014 C207.810194,43.0727272 205.831049,53.2389611 202.532475,60.5961039 Z" id="XMLID_65_" fill="#494949"></path>
                <path d="M376.433322,26.3519481 L376.433322,22.2051948 L343.843408,22.2051948 L343.843408,11.6376623 L339.621233,11.6376623 L339.621233,22.2051948 L307.295203,22.2051948 L307.295203,26.3519481 L339.621233,26.3519481 L339.621233,40.12987 L338.961517,40.12987 L318.642298,40.12987 L318.642298,43.8753247 C318.642298,43.8753247 321.808931,51.2324675 328.406077,59.2584417 C331.044938,62.4688311 334.079626,65.8129869 338.037917,69.1571428 C330.649109,73.7051947 321.545044,78.1194806 308.746574,80.6610389 L311.121549,84.9415583 C311.121549,84.9415583 326.294989,81.7311689 341.336491,71.8324675 C343.315634,73.17013 352.683586,80.6610389 370.10006,84.9415583 L370.10006,84.9415583 L370.232002,84.9415583 L371.947263,81.7311689 C371.947263,81.7311689 367.461201,80.5272728 360.600165,77.8519481 C355.850219,75.9792208 349.912783,73.17013 344.239237,69.2909092 C352.683586,63.0038961 360.204336,53.9077922 364.690398,42.27013 L361.259881,40.2636364 L343.711463,40.2636364 L343.711463,26.3519481 L376.433322,26.3519481 Z M359.940452,43.7415583 C359.940452,43.7415583 355.718274,55.9142858 341.336491,66.3480519 C334.475455,60.9974025 327.350535,53.2389611 322.864473,43.7415583 L359.940452,43.7415583 Z" id="XMLID_35_" fill="#494949"></path>
                <path d="M428.946629,79.7246753 L426.571655,79.7246753 L426.571655,83.8714286 L430.134116,83.8714286 C434.224349,83.8714286 436.335436,82.935065 438.182637,81.1961039 C439.897895,79.4571428 440.689553,76.9155844 440.557611,73.4376622 L440.557611,34.5116883 L451.640822,34.5116883 L451.640822,30.364935 L440.557611,30.364935 L440.557611,12.4402598 L436.467379,12.4402598 L436.467379,30.364935 L402.42609,30.364935 L402.42609,34.5116883 L436.467379,34.5116883 L436.467379,73.4376622 C436.335436,77.718182 433.696578,79.7246753 428.946629,79.7246753 Z" id="XMLID_34_" fill="#494949"></path>
                <path d="M419.710621,65.8129869 L423.800854,63.4051947 C421.557822,58.8571428 418.655076,52.8376622 415.092617,45.4805194 L411.398214,47.7545456 C413.773185,52.7038961 416.543989,58.7233767 419.710621,65.8129869 Z" id="XMLID_33_" fill="#494949"></path>
            </g>
        </g>
    </g>
</svg>