<?xml version="1.0" encoding="UTF-8"?>
<svg width="512px" height="512px" viewBox="0 0 512 512" version="1.1" xmlns="http://www.w3.org/2000/svg" xmlns:xlink="http://www.w3.org/1999/xlink">
    <!-- Generator: Sketch 42 (36781) - http://www.bohemiancoding.com/sketch -->
    <title>Apple Pay</title>
    <desc>Created with Sketch.</desc>
    <defs></defs>
    <g id="Page-1" stroke="none" stroke-width="1" fill="none" fill-rule="evenodd">
        <g id="Apple-Pay" fill-rule="nonzero">
            <path d="M481.857,102 C495.711,102 506.983,113.271 506.983,127.126 L506.983,385.025 C506.983,398.879 495.712,410.151 481.857,410.151 L30.126,410.151 C16.272,410.151 5,398.88 5,385.025 L5,127.126 C5,113.272 16.271,102 30.126,102 L481.857,102 L481.857,102 Z M481.857,97 L30.126,97 C13.488,97 0,110.488 0,127.126 L0,385.025 C0,401.665 13.488,415.151 30.126,415.151 L481.857,415.151 C498.497,415.151 511.983,401.665 511.983,385.025 L511.983,127.126 C511.983,110.488 498.496,97 481.857,97 L481.857,97 Z" id="Shape" fill="#000000"></path>
            <path d="M130.371,191.521 C134.603,186.409 141.95,182.736 147.86,182.497 C148.58,189.445 145.865,196.312 141.712,201.424 C137.478,206.375 130.771,210.287 124.062,209.729 C123.264,203.021 126.538,195.913 130.371,191.521 Z M164.471,285.996 C159.441,293.263 154.409,300.37 146.264,300.53 C138.438,300.611 135.881,295.818 126.858,295.818 C117.913,295.818 114.959,300.292 107.533,300.611 C99.705,300.928 93.716,292.942 88.764,285.676 C78.62,270.982 70.874,244.307 81.336,226.259 C86.368,217.236 95.711,211.565 105.695,211.405 C113.361,211.245 120.387,216.517 125.1,216.517 C129.732,216.517 138.037,210.447 147.781,211.006 C151.535,211.245 162.395,212.363 169.423,222.745 C168.864,223.144 156.485,230.333 156.646,245.266 C156.806,263.155 172.298,269.063 172.459,269.224 C172.298,269.704 169.982,277.69 164.471,285.996 Z M244.172,262.516 L220.774,262.516 L220.774,299.732 L203.843,299.732 L203.843,190.802 L244.732,190.802 C265.816,190.802 280.589,205.337 280.589,226.58 C280.589,247.823 265.576,262.516 244.172,262.516 Z M352.385,245.507 L352.385,299.811 L336.733,299.811 L336.733,286.714 L336.413,286.714 C331.939,295.26 322.118,300.611 311.498,300.611 C295.764,300.611 284.823,291.266 284.823,277.131 C284.823,263.156 295.444,255.09 315.091,253.892 L336.172,252.615 L336.172,246.626 C336.172,237.681 330.423,232.89 320.042,232.89 C311.576,232.89 305.349,237.282 304.068,243.99 L288.815,243.99 C289.294,229.934 302.552,219.633 320.52,219.633 C339.845,219.633 352.464,229.776 352.464,245.508 L352.385,245.508 L352.385,245.507 Z M404.454,303.964 C397.666,323.052 389.919,329.36 373.388,329.36 C372.109,329.36 367.877,329.28 366.919,328.963 L366.919,315.865 C367.956,315.943 370.513,316.103 371.87,316.103 C379.377,316.103 383.609,312.91 386.165,304.764 L387.682,299.972 L359.013,220.67 L376.823,220.67 L396.707,285.037 L397.026,285.037 L416.914,220.67 L434.082,220.67 L404.454,303.964 Z" id="Shape" fill="#000000"></path>
            <path d="M240.26,205.017 L220.774,205.017 L220.774,248.302 L240.179,248.302 C254.954,248.302 263.34,240.397 263.34,226.66 C263.34,212.844 254.954,205.017 240.26,205.017 Z" id="Shape" fill="#FFFFFF"></path>
            <path d="M301.272,276.654 C301.272,283.281 307.022,287.593 316.046,287.593 C327.546,287.593 336.17,280.325 336.17,270.104 L336.17,263.956 L317.403,265.152 C306.784,265.871 301.272,269.785 301.272,276.654 Z" id="Shape" fill="#FFFFFF"></path>
        </g>
    </g>
</svg>